%TF.GenerationSoftware,KiCad,Pcbnew,(6.0.7)*%
%TF.CreationDate,2022-10-03T18:22:00-04:00*%
%TF.ProjectId,IDE-SSD-ZIF,4944452d-5353-4442-9d5a-49462e6b6963,rev?*%
%TF.SameCoordinates,Original*%
%TF.FileFunction,Legend,Top*%
%TF.FilePolarity,Positive*%
%FSLAX46Y46*%
G04 Gerber Fmt 4.6, Leading zero omitted, Abs format (unit mm)*
G04 Created by KiCad (PCBNEW (6.0.7)) date 2022-10-03 18:22:00*
%MOMM*%
%LPD*%
G01*
G04 APERTURE LIST*
%ADD10C,0.150000*%
%ADD11C,0.120000*%
%ADD12C,0.152400*%
%ADD13C,0.100000*%
%ADD14C,0.200000*%
G04 APERTURE END LIST*
D10*
%TO.C,R4*%
X124702380Y-70916666D02*
X124226190Y-71250000D01*
X124702380Y-71488095D02*
X123702380Y-71488095D01*
X123702380Y-71107142D01*
X123750000Y-71011904D01*
X123797619Y-70964285D01*
X123892857Y-70916666D01*
X124035714Y-70916666D01*
X124130952Y-70964285D01*
X124178571Y-71011904D01*
X124226190Y-71107142D01*
X124226190Y-71488095D01*
X124035714Y-70059523D02*
X124702380Y-70059523D01*
X123654761Y-70297619D02*
X124369047Y-70535714D01*
X124369047Y-69916666D01*
%TO.C,C1*%
X120083333Y-61857142D02*
X120035714Y-61904761D01*
X119892857Y-61952380D01*
X119797619Y-61952380D01*
X119654761Y-61904761D01*
X119559523Y-61809523D01*
X119511904Y-61714285D01*
X119464285Y-61523809D01*
X119464285Y-61380952D01*
X119511904Y-61190476D01*
X119559523Y-61095238D01*
X119654761Y-61000000D01*
X119797619Y-60952380D01*
X119892857Y-60952380D01*
X120035714Y-61000000D01*
X120083333Y-61047619D01*
X121035714Y-61952380D02*
X120464285Y-61952380D01*
X120750000Y-61952380D02*
X120750000Y-60952380D01*
X120654761Y-61095238D01*
X120559523Y-61190476D01*
X120464285Y-61238095D01*
%TO.C,C27*%
X111107142Y-104607142D02*
X111059523Y-104654761D01*
X110916666Y-104702380D01*
X110821428Y-104702380D01*
X110678571Y-104654761D01*
X110583333Y-104559523D01*
X110535714Y-104464285D01*
X110488095Y-104273809D01*
X110488095Y-104130952D01*
X110535714Y-103940476D01*
X110583333Y-103845238D01*
X110678571Y-103750000D01*
X110821428Y-103702380D01*
X110916666Y-103702380D01*
X111059523Y-103750000D01*
X111107142Y-103797619D01*
X111488095Y-103797619D02*
X111535714Y-103750000D01*
X111630952Y-103702380D01*
X111869047Y-103702380D01*
X111964285Y-103750000D01*
X112011904Y-103797619D01*
X112059523Y-103892857D01*
X112059523Y-103988095D01*
X112011904Y-104130952D01*
X111440476Y-104702380D01*
X112059523Y-104702380D01*
X112392857Y-103702380D02*
X113059523Y-103702380D01*
X112630952Y-104702380D01*
%TO.C,C36*%
X156127142Y-94107142D02*
X156079523Y-94154761D01*
X155936666Y-94202380D01*
X155841428Y-94202380D01*
X155698571Y-94154761D01*
X155603333Y-94059523D01*
X155555714Y-93964285D01*
X155508095Y-93773809D01*
X155508095Y-93630952D01*
X155555714Y-93440476D01*
X155603333Y-93345238D01*
X155698571Y-93250000D01*
X155841428Y-93202380D01*
X155936666Y-93202380D01*
X156079523Y-93250000D01*
X156127142Y-93297619D01*
X156460476Y-93202380D02*
X157079523Y-93202380D01*
X156746190Y-93583333D01*
X156889047Y-93583333D01*
X156984285Y-93630952D01*
X157031904Y-93678571D01*
X157079523Y-93773809D01*
X157079523Y-94011904D01*
X157031904Y-94107142D01*
X156984285Y-94154761D01*
X156889047Y-94202380D01*
X156603333Y-94202380D01*
X156508095Y-94154761D01*
X156460476Y-94107142D01*
X157936666Y-93202380D02*
X157746190Y-93202380D01*
X157650952Y-93250000D01*
X157603333Y-93297619D01*
X157508095Y-93440476D01*
X157460476Y-93630952D01*
X157460476Y-94011904D01*
X157508095Y-94107142D01*
X157555714Y-94154761D01*
X157650952Y-94202380D01*
X157841428Y-94202380D01*
X157936666Y-94154761D01*
X157984285Y-94107142D01*
X158031904Y-94011904D01*
X158031904Y-93773809D01*
X157984285Y-93678571D01*
X157936666Y-93630952D01*
X157841428Y-93583333D01*
X157650952Y-93583333D01*
X157555714Y-93630952D01*
X157508095Y-93678571D01*
X157460476Y-93773809D01*
%TO.C,RST*%
X113702380Y-75202380D02*
X113369047Y-74726190D01*
X113130952Y-75202380D02*
X113130952Y-74202380D01*
X113511904Y-74202380D01*
X113607142Y-74250000D01*
X113654761Y-74297619D01*
X113702380Y-74392857D01*
X113702380Y-74535714D01*
X113654761Y-74630952D01*
X113607142Y-74678571D01*
X113511904Y-74726190D01*
X113130952Y-74726190D01*
X114083333Y-75154761D02*
X114226190Y-75202380D01*
X114464285Y-75202380D01*
X114559523Y-75154761D01*
X114607142Y-75107142D01*
X114654761Y-75011904D01*
X114654761Y-74916666D01*
X114607142Y-74821428D01*
X114559523Y-74773809D01*
X114464285Y-74726190D01*
X114273809Y-74678571D01*
X114178571Y-74630952D01*
X114130952Y-74583333D01*
X114083333Y-74488095D01*
X114083333Y-74392857D01*
X114130952Y-74297619D01*
X114178571Y-74250000D01*
X114273809Y-74202380D01*
X114511904Y-74202380D01*
X114654761Y-74250000D01*
X114940476Y-74202380D02*
X115511904Y-74202380D01*
X115226190Y-75202380D02*
X115226190Y-74202380D01*
%TO.C,C17*%
X156107142Y-106197142D02*
X156059523Y-106244761D01*
X155916666Y-106292380D01*
X155821428Y-106292380D01*
X155678571Y-106244761D01*
X155583333Y-106149523D01*
X155535714Y-106054285D01*
X155488095Y-105863809D01*
X155488095Y-105720952D01*
X155535714Y-105530476D01*
X155583333Y-105435238D01*
X155678571Y-105340000D01*
X155821428Y-105292380D01*
X155916666Y-105292380D01*
X156059523Y-105340000D01*
X156107142Y-105387619D01*
X157059523Y-106292380D02*
X156488095Y-106292380D01*
X156773809Y-106292380D02*
X156773809Y-105292380D01*
X156678571Y-105435238D01*
X156583333Y-105530476D01*
X156488095Y-105578095D01*
X157392857Y-105292380D02*
X158059523Y-105292380D01*
X157630952Y-106292380D01*
%TO.C,C40*%
X155082142Y-84927142D02*
X155034523Y-84974761D01*
X154891666Y-85022380D01*
X154796428Y-85022380D01*
X154653571Y-84974761D01*
X154558333Y-84879523D01*
X154510714Y-84784285D01*
X154463095Y-84593809D01*
X154463095Y-84450952D01*
X154510714Y-84260476D01*
X154558333Y-84165238D01*
X154653571Y-84070000D01*
X154796428Y-84022380D01*
X154891666Y-84022380D01*
X155034523Y-84070000D01*
X155082142Y-84117619D01*
X155939285Y-84355714D02*
X155939285Y-85022380D01*
X155701190Y-83974761D02*
X155463095Y-84689047D01*
X156082142Y-84689047D01*
X156653571Y-84022380D02*
X156748809Y-84022380D01*
X156844047Y-84070000D01*
X156891666Y-84117619D01*
X156939285Y-84212857D01*
X156986904Y-84403333D01*
X156986904Y-84641428D01*
X156939285Y-84831904D01*
X156891666Y-84927142D01*
X156844047Y-84974761D01*
X156748809Y-85022380D01*
X156653571Y-85022380D01*
X156558333Y-84974761D01*
X156510714Y-84927142D01*
X156463095Y-84831904D01*
X156415476Y-84641428D01*
X156415476Y-84403333D01*
X156463095Y-84212857D01*
X156510714Y-84117619D01*
X156558333Y-84070000D01*
X156653571Y-84022380D01*
%TO.C,R12*%
X122452380Y-63162857D02*
X121976190Y-63496190D01*
X122452380Y-63734285D02*
X121452380Y-63734285D01*
X121452380Y-63353333D01*
X121500000Y-63258095D01*
X121547619Y-63210476D01*
X121642857Y-63162857D01*
X121785714Y-63162857D01*
X121880952Y-63210476D01*
X121928571Y-63258095D01*
X121976190Y-63353333D01*
X121976190Y-63734285D01*
X122452380Y-62210476D02*
X122452380Y-62781904D01*
X122452380Y-62496190D02*
X121452380Y-62496190D01*
X121595238Y-62591428D01*
X121690476Y-62686666D01*
X121738095Y-62781904D01*
X121547619Y-61829523D02*
X121500000Y-61781904D01*
X121452380Y-61686666D01*
X121452380Y-61448571D01*
X121500000Y-61353333D01*
X121547619Y-61305714D01*
X121642857Y-61258095D01*
X121738095Y-61258095D01*
X121880952Y-61305714D01*
X122452380Y-61877142D01*
X122452380Y-61258095D01*
%TO.C,R2*%
X128452380Y-63186666D02*
X127976190Y-63520000D01*
X128452380Y-63758095D02*
X127452380Y-63758095D01*
X127452380Y-63377142D01*
X127500000Y-63281904D01*
X127547619Y-63234285D01*
X127642857Y-63186666D01*
X127785714Y-63186666D01*
X127880952Y-63234285D01*
X127928571Y-63281904D01*
X127976190Y-63377142D01*
X127976190Y-63758095D01*
X127547619Y-62805714D02*
X127500000Y-62758095D01*
X127452380Y-62662857D01*
X127452380Y-62424761D01*
X127500000Y-62329523D01*
X127547619Y-62281904D01*
X127642857Y-62234285D01*
X127738095Y-62234285D01*
X127880952Y-62281904D01*
X128452380Y-62853333D01*
X128452380Y-62234285D01*
%TO.C,GND*%
X113738095Y-76500000D02*
X113642857Y-76452380D01*
X113500000Y-76452380D01*
X113357142Y-76500000D01*
X113261904Y-76595238D01*
X113214285Y-76690476D01*
X113166666Y-76880952D01*
X113166666Y-77023809D01*
X113214285Y-77214285D01*
X113261904Y-77309523D01*
X113357142Y-77404761D01*
X113500000Y-77452380D01*
X113595238Y-77452380D01*
X113738095Y-77404761D01*
X113785714Y-77357142D01*
X113785714Y-77023809D01*
X113595238Y-77023809D01*
X114214285Y-77452380D02*
X114214285Y-76452380D01*
X114785714Y-77452380D01*
X114785714Y-76452380D01*
X115261904Y-77452380D02*
X115261904Y-76452380D01*
X115500000Y-76452380D01*
X115642857Y-76500000D01*
X115738095Y-76595238D01*
X115785714Y-76690476D01*
X115833333Y-76880952D01*
X115833333Y-77023809D01*
X115785714Y-77214285D01*
X115738095Y-77309523D01*
X115642857Y-77404761D01*
X115500000Y-77452380D01*
X115261904Y-77452380D01*
%TO.C,RN4*%
X134384523Y-63722380D02*
X134051190Y-63246190D01*
X133813095Y-63722380D02*
X133813095Y-62722380D01*
X134194047Y-62722380D01*
X134289285Y-62770000D01*
X134336904Y-62817619D01*
X134384523Y-62912857D01*
X134384523Y-63055714D01*
X134336904Y-63150952D01*
X134289285Y-63198571D01*
X134194047Y-63246190D01*
X133813095Y-63246190D01*
X134813095Y-63722380D02*
X134813095Y-62722380D01*
X135384523Y-63722380D01*
X135384523Y-62722380D01*
X136289285Y-63055714D02*
X136289285Y-63722380D01*
X136051190Y-62674761D02*
X135813095Y-63389047D01*
X136432142Y-63389047D01*
%TO.C,C25*%
X151107142Y-123357142D02*
X151059523Y-123404761D01*
X150916666Y-123452380D01*
X150821428Y-123452380D01*
X150678571Y-123404761D01*
X150583333Y-123309523D01*
X150535714Y-123214285D01*
X150488095Y-123023809D01*
X150488095Y-122880952D01*
X150535714Y-122690476D01*
X150583333Y-122595238D01*
X150678571Y-122500000D01*
X150821428Y-122452380D01*
X150916666Y-122452380D01*
X151059523Y-122500000D01*
X151107142Y-122547619D01*
X151488095Y-122547619D02*
X151535714Y-122500000D01*
X151630952Y-122452380D01*
X151869047Y-122452380D01*
X151964285Y-122500000D01*
X152011904Y-122547619D01*
X152059523Y-122642857D01*
X152059523Y-122738095D01*
X152011904Y-122880952D01*
X151440476Y-123452380D01*
X152059523Y-123452380D01*
X152964285Y-122452380D02*
X152488095Y-122452380D01*
X152440476Y-122928571D01*
X152488095Y-122880952D01*
X152583333Y-122833333D01*
X152821428Y-122833333D01*
X152916666Y-122880952D01*
X152964285Y-122928571D01*
X153011904Y-123023809D01*
X153011904Y-123261904D01*
X152964285Y-123357142D01*
X152916666Y-123404761D01*
X152821428Y-123452380D01*
X152583333Y-123452380D01*
X152488095Y-123404761D01*
X152440476Y-123357142D01*
%TO.C,C33*%
X110607142Y-106107142D02*
X110559523Y-106154761D01*
X110416666Y-106202380D01*
X110321428Y-106202380D01*
X110178571Y-106154761D01*
X110083333Y-106059523D01*
X110035714Y-105964285D01*
X109988095Y-105773809D01*
X109988095Y-105630952D01*
X110035714Y-105440476D01*
X110083333Y-105345238D01*
X110178571Y-105250000D01*
X110321428Y-105202380D01*
X110416666Y-105202380D01*
X110559523Y-105250000D01*
X110607142Y-105297619D01*
X110940476Y-105202380D02*
X111559523Y-105202380D01*
X111226190Y-105583333D01*
X111369047Y-105583333D01*
X111464285Y-105630952D01*
X111511904Y-105678571D01*
X111559523Y-105773809D01*
X111559523Y-106011904D01*
X111511904Y-106107142D01*
X111464285Y-106154761D01*
X111369047Y-106202380D01*
X111083333Y-106202380D01*
X110988095Y-106154761D01*
X110940476Y-106107142D01*
X111892857Y-105202380D02*
X112511904Y-105202380D01*
X112178571Y-105583333D01*
X112321428Y-105583333D01*
X112416666Y-105630952D01*
X112464285Y-105678571D01*
X112511904Y-105773809D01*
X112511904Y-106011904D01*
X112464285Y-106107142D01*
X112416666Y-106154761D01*
X112321428Y-106202380D01*
X112035714Y-106202380D01*
X111940476Y-106154761D01*
X111892857Y-106107142D01*
%TO.C,C20*%
X110607142Y-100107142D02*
X110559523Y-100154761D01*
X110416666Y-100202380D01*
X110321428Y-100202380D01*
X110178571Y-100154761D01*
X110083333Y-100059523D01*
X110035714Y-99964285D01*
X109988095Y-99773809D01*
X109988095Y-99630952D01*
X110035714Y-99440476D01*
X110083333Y-99345238D01*
X110178571Y-99250000D01*
X110321428Y-99202380D01*
X110416666Y-99202380D01*
X110559523Y-99250000D01*
X110607142Y-99297619D01*
X110988095Y-99297619D02*
X111035714Y-99250000D01*
X111130952Y-99202380D01*
X111369047Y-99202380D01*
X111464285Y-99250000D01*
X111511904Y-99297619D01*
X111559523Y-99392857D01*
X111559523Y-99488095D01*
X111511904Y-99630952D01*
X110940476Y-100202380D01*
X111559523Y-100202380D01*
X112178571Y-99202380D02*
X112273809Y-99202380D01*
X112369047Y-99250000D01*
X112416666Y-99297619D01*
X112464285Y-99392857D01*
X112511904Y-99583333D01*
X112511904Y-99821428D01*
X112464285Y-100011904D01*
X112416666Y-100107142D01*
X112369047Y-100154761D01*
X112273809Y-100202380D01*
X112178571Y-100202380D01*
X112083333Y-100154761D01*
X112035714Y-100107142D01*
X111988095Y-100011904D01*
X111940476Y-99821428D01*
X111940476Y-99583333D01*
X111988095Y-99392857D01*
X112035714Y-99297619D01*
X112083333Y-99250000D01*
X112178571Y-99202380D01*
%TO.C,C35*%
X138357142Y-86127142D02*
X138309523Y-86174761D01*
X138166666Y-86222380D01*
X138071428Y-86222380D01*
X137928571Y-86174761D01*
X137833333Y-86079523D01*
X137785714Y-85984285D01*
X137738095Y-85793809D01*
X137738095Y-85650952D01*
X137785714Y-85460476D01*
X137833333Y-85365238D01*
X137928571Y-85270000D01*
X138071428Y-85222380D01*
X138166666Y-85222380D01*
X138309523Y-85270000D01*
X138357142Y-85317619D01*
X138690476Y-85222380D02*
X139309523Y-85222380D01*
X138976190Y-85603333D01*
X139119047Y-85603333D01*
X139214285Y-85650952D01*
X139261904Y-85698571D01*
X139309523Y-85793809D01*
X139309523Y-86031904D01*
X139261904Y-86127142D01*
X139214285Y-86174761D01*
X139119047Y-86222380D01*
X138833333Y-86222380D01*
X138738095Y-86174761D01*
X138690476Y-86127142D01*
X140214285Y-85222380D02*
X139738095Y-85222380D01*
X139690476Y-85698571D01*
X139738095Y-85650952D01*
X139833333Y-85603333D01*
X140071428Y-85603333D01*
X140166666Y-85650952D01*
X140214285Y-85698571D01*
X140261904Y-85793809D01*
X140261904Y-86031904D01*
X140214285Y-86127142D01*
X140166666Y-86174761D01*
X140071428Y-86222380D01*
X139833333Y-86222380D01*
X139738095Y-86174761D01*
X139690476Y-86127142D01*
%TO.C,RN3*%
X137459523Y-63747380D02*
X137126190Y-63271190D01*
X136888095Y-63747380D02*
X136888095Y-62747380D01*
X137269047Y-62747380D01*
X137364285Y-62795000D01*
X137411904Y-62842619D01*
X137459523Y-62937857D01*
X137459523Y-63080714D01*
X137411904Y-63175952D01*
X137364285Y-63223571D01*
X137269047Y-63271190D01*
X136888095Y-63271190D01*
X137888095Y-63747380D02*
X137888095Y-62747380D01*
X138459523Y-63747380D01*
X138459523Y-62747380D01*
X138840476Y-62747380D02*
X139459523Y-62747380D01*
X139126190Y-63128333D01*
X139269047Y-63128333D01*
X139364285Y-63175952D01*
X139411904Y-63223571D01*
X139459523Y-63318809D01*
X139459523Y-63556904D01*
X139411904Y-63652142D01*
X139364285Y-63699761D01*
X139269047Y-63747380D01*
X138983333Y-63747380D01*
X138888095Y-63699761D01*
X138840476Y-63652142D01*
%TO.C,R19*%
X111367142Y-79452380D02*
X111033809Y-78976190D01*
X110795714Y-79452380D02*
X110795714Y-78452380D01*
X111176666Y-78452380D01*
X111271904Y-78500000D01*
X111319523Y-78547619D01*
X111367142Y-78642857D01*
X111367142Y-78785714D01*
X111319523Y-78880952D01*
X111271904Y-78928571D01*
X111176666Y-78976190D01*
X110795714Y-78976190D01*
X112319523Y-79452380D02*
X111748095Y-79452380D01*
X112033809Y-79452380D02*
X112033809Y-78452380D01*
X111938571Y-78595238D01*
X111843333Y-78690476D01*
X111748095Y-78738095D01*
X112795714Y-79452380D02*
X112986190Y-79452380D01*
X113081428Y-79404761D01*
X113129047Y-79357142D01*
X113224285Y-79214285D01*
X113271904Y-79023809D01*
X113271904Y-78642857D01*
X113224285Y-78547619D01*
X113176666Y-78500000D01*
X113081428Y-78452380D01*
X112890952Y-78452380D01*
X112795714Y-78500000D01*
X112748095Y-78547619D01*
X112700476Y-78642857D01*
X112700476Y-78880952D01*
X112748095Y-78976190D01*
X112795714Y-79023809D01*
X112890952Y-79071428D01*
X113081428Y-79071428D01*
X113176666Y-79023809D01*
X113224285Y-78976190D01*
X113271904Y-78880952D01*
%TO.C,R26*%
X121857142Y-74452380D02*
X121523809Y-73976190D01*
X121285714Y-74452380D02*
X121285714Y-73452380D01*
X121666666Y-73452380D01*
X121761904Y-73500000D01*
X121809523Y-73547619D01*
X121857142Y-73642857D01*
X121857142Y-73785714D01*
X121809523Y-73880952D01*
X121761904Y-73928571D01*
X121666666Y-73976190D01*
X121285714Y-73976190D01*
X122238095Y-73547619D02*
X122285714Y-73500000D01*
X122380952Y-73452380D01*
X122619047Y-73452380D01*
X122714285Y-73500000D01*
X122761904Y-73547619D01*
X122809523Y-73642857D01*
X122809523Y-73738095D01*
X122761904Y-73880952D01*
X122190476Y-74452380D01*
X122809523Y-74452380D01*
X123666666Y-73452380D02*
X123476190Y-73452380D01*
X123380952Y-73500000D01*
X123333333Y-73547619D01*
X123238095Y-73690476D01*
X123190476Y-73880952D01*
X123190476Y-74261904D01*
X123238095Y-74357142D01*
X123285714Y-74404761D01*
X123380952Y-74452380D01*
X123571428Y-74452380D01*
X123666666Y-74404761D01*
X123714285Y-74357142D01*
X123761904Y-74261904D01*
X123761904Y-74023809D01*
X123714285Y-73928571D01*
X123666666Y-73880952D01*
X123571428Y-73833333D01*
X123380952Y-73833333D01*
X123285714Y-73880952D01*
X123238095Y-73928571D01*
X123190476Y-74023809D01*
%TO.C,C24*%
X132357142Y-100857142D02*
X132309523Y-100904761D01*
X132166666Y-100952380D01*
X132071428Y-100952380D01*
X131928571Y-100904761D01*
X131833333Y-100809523D01*
X131785714Y-100714285D01*
X131738095Y-100523809D01*
X131738095Y-100380952D01*
X131785714Y-100190476D01*
X131833333Y-100095238D01*
X131928571Y-100000000D01*
X132071428Y-99952380D01*
X132166666Y-99952380D01*
X132309523Y-100000000D01*
X132357142Y-100047619D01*
X132738095Y-100047619D02*
X132785714Y-100000000D01*
X132880952Y-99952380D01*
X133119047Y-99952380D01*
X133214285Y-100000000D01*
X133261904Y-100047619D01*
X133309523Y-100142857D01*
X133309523Y-100238095D01*
X133261904Y-100380952D01*
X132690476Y-100952380D01*
X133309523Y-100952380D01*
X134166666Y-100285714D02*
X134166666Y-100952380D01*
X133928571Y-99904761D02*
X133690476Y-100619047D01*
X134309523Y-100619047D01*
%TO.C,J1*%
X147203218Y-58601715D02*
X147203218Y-59773391D01*
X147125106Y-60007726D01*
X146968882Y-60163949D01*
X146734547Y-60242061D01*
X146578324Y-60242061D01*
X148843564Y-60242061D02*
X147906223Y-60242061D01*
X148374893Y-60242061D02*
X148374893Y-58601715D01*
X148218670Y-58836050D01*
X148062446Y-58992273D01*
X147906223Y-59070385D01*
%TO.C,R22*%
X135452380Y-118382857D02*
X134976190Y-118716190D01*
X135452380Y-118954285D02*
X134452380Y-118954285D01*
X134452380Y-118573333D01*
X134500000Y-118478095D01*
X134547619Y-118430476D01*
X134642857Y-118382857D01*
X134785714Y-118382857D01*
X134880952Y-118430476D01*
X134928571Y-118478095D01*
X134976190Y-118573333D01*
X134976190Y-118954285D01*
X134547619Y-118001904D02*
X134500000Y-117954285D01*
X134452380Y-117859047D01*
X134452380Y-117620952D01*
X134500000Y-117525714D01*
X134547619Y-117478095D01*
X134642857Y-117430476D01*
X134738095Y-117430476D01*
X134880952Y-117478095D01*
X135452380Y-118049523D01*
X135452380Y-117430476D01*
X134547619Y-117049523D02*
X134500000Y-117001904D01*
X134452380Y-116906666D01*
X134452380Y-116668571D01*
X134500000Y-116573333D01*
X134547619Y-116525714D01*
X134642857Y-116478095D01*
X134738095Y-116478095D01*
X134880952Y-116525714D01*
X135452380Y-117097142D01*
X135452380Y-116478095D01*
%TO.C,C29*%
X133107142Y-120197142D02*
X133059523Y-120244761D01*
X132916666Y-120292380D01*
X132821428Y-120292380D01*
X132678571Y-120244761D01*
X132583333Y-120149523D01*
X132535714Y-120054285D01*
X132488095Y-119863809D01*
X132488095Y-119720952D01*
X132535714Y-119530476D01*
X132583333Y-119435238D01*
X132678571Y-119340000D01*
X132821428Y-119292380D01*
X132916666Y-119292380D01*
X133059523Y-119340000D01*
X133107142Y-119387619D01*
X133488095Y-119387619D02*
X133535714Y-119340000D01*
X133630952Y-119292380D01*
X133869047Y-119292380D01*
X133964285Y-119340000D01*
X134011904Y-119387619D01*
X134059523Y-119482857D01*
X134059523Y-119578095D01*
X134011904Y-119720952D01*
X133440476Y-120292380D01*
X134059523Y-120292380D01*
X134535714Y-120292380D02*
X134726190Y-120292380D01*
X134821428Y-120244761D01*
X134869047Y-120197142D01*
X134964285Y-120054285D01*
X135011904Y-119863809D01*
X135011904Y-119482857D01*
X134964285Y-119387619D01*
X134916666Y-119340000D01*
X134821428Y-119292380D01*
X134630952Y-119292380D01*
X134535714Y-119340000D01*
X134488095Y-119387619D01*
X134440476Y-119482857D01*
X134440476Y-119720952D01*
X134488095Y-119816190D01*
X134535714Y-119863809D01*
X134630952Y-119911428D01*
X134821428Y-119911428D01*
X134916666Y-119863809D01*
X134964285Y-119816190D01*
X135011904Y-119720952D01*
%TO.C,RN1*%
X144059523Y-63722380D02*
X143726190Y-63246190D01*
X143488095Y-63722380D02*
X143488095Y-62722380D01*
X143869047Y-62722380D01*
X143964285Y-62770000D01*
X144011904Y-62817619D01*
X144059523Y-62912857D01*
X144059523Y-63055714D01*
X144011904Y-63150952D01*
X143964285Y-63198571D01*
X143869047Y-63246190D01*
X143488095Y-63246190D01*
X144488095Y-63722380D02*
X144488095Y-62722380D01*
X145059523Y-63722380D01*
X145059523Y-62722380D01*
X146059523Y-63722380D02*
X145488095Y-63722380D01*
X145773809Y-63722380D02*
X145773809Y-62722380D01*
X145678571Y-62865238D01*
X145583333Y-62960476D01*
X145488095Y-63008095D01*
%TO.C,C22*%
X133607142Y-124107142D02*
X133559523Y-124154761D01*
X133416666Y-124202380D01*
X133321428Y-124202380D01*
X133178571Y-124154761D01*
X133083333Y-124059523D01*
X133035714Y-123964285D01*
X132988095Y-123773809D01*
X132988095Y-123630952D01*
X133035714Y-123440476D01*
X133083333Y-123345238D01*
X133178571Y-123250000D01*
X133321428Y-123202380D01*
X133416666Y-123202380D01*
X133559523Y-123250000D01*
X133607142Y-123297619D01*
X133988095Y-123297619D02*
X134035714Y-123250000D01*
X134130952Y-123202380D01*
X134369047Y-123202380D01*
X134464285Y-123250000D01*
X134511904Y-123297619D01*
X134559523Y-123392857D01*
X134559523Y-123488095D01*
X134511904Y-123630952D01*
X133940476Y-124202380D01*
X134559523Y-124202380D01*
X134940476Y-123297619D02*
X134988095Y-123250000D01*
X135083333Y-123202380D01*
X135321428Y-123202380D01*
X135416666Y-123250000D01*
X135464285Y-123297619D01*
X135511904Y-123392857D01*
X135511904Y-123488095D01*
X135464285Y-123630952D01*
X134892857Y-124202380D01*
X135511904Y-124202380D01*
%TO.C,R14*%
X147702380Y-63162857D02*
X147226190Y-63496190D01*
X147702380Y-63734285D02*
X146702380Y-63734285D01*
X146702380Y-63353333D01*
X146750000Y-63258095D01*
X146797619Y-63210476D01*
X146892857Y-63162857D01*
X147035714Y-63162857D01*
X147130952Y-63210476D01*
X147178571Y-63258095D01*
X147226190Y-63353333D01*
X147226190Y-63734285D01*
X147702380Y-62210476D02*
X147702380Y-62781904D01*
X147702380Y-62496190D02*
X146702380Y-62496190D01*
X146845238Y-62591428D01*
X146940476Y-62686666D01*
X146988095Y-62781904D01*
X147035714Y-61353333D02*
X147702380Y-61353333D01*
X146654761Y-61591428D02*
X147369047Y-61829523D01*
X147369047Y-61210476D01*
%TO.C,R23*%
X135452380Y-112642857D02*
X134976190Y-112976190D01*
X135452380Y-113214285D02*
X134452380Y-113214285D01*
X134452380Y-112833333D01*
X134500000Y-112738095D01*
X134547619Y-112690476D01*
X134642857Y-112642857D01*
X134785714Y-112642857D01*
X134880952Y-112690476D01*
X134928571Y-112738095D01*
X134976190Y-112833333D01*
X134976190Y-113214285D01*
X134547619Y-112261904D02*
X134500000Y-112214285D01*
X134452380Y-112119047D01*
X134452380Y-111880952D01*
X134500000Y-111785714D01*
X134547619Y-111738095D01*
X134642857Y-111690476D01*
X134738095Y-111690476D01*
X134880952Y-111738095D01*
X135452380Y-112309523D01*
X135452380Y-111690476D01*
X134452380Y-111357142D02*
X134452380Y-110738095D01*
X134833333Y-111071428D01*
X134833333Y-110928571D01*
X134880952Y-110833333D01*
X134928571Y-110785714D01*
X135023809Y-110738095D01*
X135261904Y-110738095D01*
X135357142Y-110785714D01*
X135404761Y-110833333D01*
X135452380Y-110928571D01*
X135452380Y-111214285D01*
X135404761Y-111309523D01*
X135357142Y-111357142D01*
%TO.C,U4*%
X121488095Y-104702380D02*
X121488095Y-105511904D01*
X121535714Y-105607142D01*
X121583333Y-105654761D01*
X121678571Y-105702380D01*
X121869047Y-105702380D01*
X121964285Y-105654761D01*
X122011904Y-105607142D01*
X122059523Y-105511904D01*
X122059523Y-104702380D01*
X122964285Y-105035714D02*
X122964285Y-105702380D01*
X122726190Y-104654761D02*
X122488095Y-105369047D01*
X123107142Y-105369047D01*
%TO.C,R25*%
X113107142Y-61202380D02*
X112773809Y-60726190D01*
X112535714Y-61202380D02*
X112535714Y-60202380D01*
X112916666Y-60202380D01*
X113011904Y-60250000D01*
X113059523Y-60297619D01*
X113107142Y-60392857D01*
X113107142Y-60535714D01*
X113059523Y-60630952D01*
X113011904Y-60678571D01*
X112916666Y-60726190D01*
X112535714Y-60726190D01*
X113488095Y-60297619D02*
X113535714Y-60250000D01*
X113630952Y-60202380D01*
X113869047Y-60202380D01*
X113964285Y-60250000D01*
X114011904Y-60297619D01*
X114059523Y-60392857D01*
X114059523Y-60488095D01*
X114011904Y-60630952D01*
X113440476Y-61202380D01*
X114059523Y-61202380D01*
X114964285Y-60202380D02*
X114488095Y-60202380D01*
X114440476Y-60678571D01*
X114488095Y-60630952D01*
X114583333Y-60583333D01*
X114821428Y-60583333D01*
X114916666Y-60630952D01*
X114964285Y-60678571D01*
X115011904Y-60773809D01*
X115011904Y-61011904D01*
X114964285Y-61107142D01*
X114916666Y-61154761D01*
X114821428Y-61202380D01*
X114583333Y-61202380D01*
X114488095Y-61154761D01*
X114440476Y-61107142D01*
%TO.C,I2C*%
X113273809Y-68452380D02*
X113273809Y-67452380D01*
X113702380Y-67547619D02*
X113750000Y-67500000D01*
X113845238Y-67452380D01*
X114083333Y-67452380D01*
X114178571Y-67500000D01*
X114226190Y-67547619D01*
X114273809Y-67642857D01*
X114273809Y-67738095D01*
X114226190Y-67880952D01*
X113654761Y-68452380D01*
X114273809Y-68452380D01*
X115273809Y-68357142D02*
X115226190Y-68404761D01*
X115083333Y-68452380D01*
X114988095Y-68452380D01*
X114845238Y-68404761D01*
X114750000Y-68309523D01*
X114702380Y-68214285D01*
X114654761Y-68023809D01*
X114654761Y-67880952D01*
X114702380Y-67690476D01*
X114750000Y-67595238D01*
X114845238Y-67500000D01*
X114988095Y-67452380D01*
X115083333Y-67452380D01*
X115226190Y-67500000D01*
X115273809Y-67547619D01*
%TO.C,C28*%
X112857142Y-87357142D02*
X112809523Y-87404761D01*
X112666666Y-87452380D01*
X112571428Y-87452380D01*
X112428571Y-87404761D01*
X112333333Y-87309523D01*
X112285714Y-87214285D01*
X112238095Y-87023809D01*
X112238095Y-86880952D01*
X112285714Y-86690476D01*
X112333333Y-86595238D01*
X112428571Y-86500000D01*
X112571428Y-86452380D01*
X112666666Y-86452380D01*
X112809523Y-86500000D01*
X112857142Y-86547619D01*
X113238095Y-86547619D02*
X113285714Y-86500000D01*
X113380952Y-86452380D01*
X113619047Y-86452380D01*
X113714285Y-86500000D01*
X113761904Y-86547619D01*
X113809523Y-86642857D01*
X113809523Y-86738095D01*
X113761904Y-86880952D01*
X113190476Y-87452380D01*
X113809523Y-87452380D01*
X114380952Y-86880952D02*
X114285714Y-86833333D01*
X114238095Y-86785714D01*
X114190476Y-86690476D01*
X114190476Y-86642857D01*
X114238095Y-86547619D01*
X114285714Y-86500000D01*
X114380952Y-86452380D01*
X114571428Y-86452380D01*
X114666666Y-86500000D01*
X114714285Y-86547619D01*
X114761904Y-86642857D01*
X114761904Y-86690476D01*
X114714285Y-86785714D01*
X114666666Y-86833333D01*
X114571428Y-86880952D01*
X114380952Y-86880952D01*
X114285714Y-86928571D01*
X114238095Y-86976190D01*
X114190476Y-87071428D01*
X114190476Y-87261904D01*
X114238095Y-87357142D01*
X114285714Y-87404761D01*
X114380952Y-87452380D01*
X114571428Y-87452380D01*
X114666666Y-87404761D01*
X114714285Y-87357142D01*
X114761904Y-87261904D01*
X114761904Y-87071428D01*
X114714285Y-86976190D01*
X114666666Y-86928571D01*
X114571428Y-86880952D01*
%TO.C,C30*%
X110377142Y-122607142D02*
X110329523Y-122654761D01*
X110186666Y-122702380D01*
X110091428Y-122702380D01*
X109948571Y-122654761D01*
X109853333Y-122559523D01*
X109805714Y-122464285D01*
X109758095Y-122273809D01*
X109758095Y-122130952D01*
X109805714Y-121940476D01*
X109853333Y-121845238D01*
X109948571Y-121750000D01*
X110091428Y-121702380D01*
X110186666Y-121702380D01*
X110329523Y-121750000D01*
X110377142Y-121797619D01*
X110710476Y-121702380D02*
X111329523Y-121702380D01*
X110996190Y-122083333D01*
X111139047Y-122083333D01*
X111234285Y-122130952D01*
X111281904Y-122178571D01*
X111329523Y-122273809D01*
X111329523Y-122511904D01*
X111281904Y-122607142D01*
X111234285Y-122654761D01*
X111139047Y-122702380D01*
X110853333Y-122702380D01*
X110758095Y-122654761D01*
X110710476Y-122607142D01*
X111948571Y-121702380D02*
X112043809Y-121702380D01*
X112139047Y-121750000D01*
X112186666Y-121797619D01*
X112234285Y-121892857D01*
X112281904Y-122083333D01*
X112281904Y-122321428D01*
X112234285Y-122511904D01*
X112186666Y-122607142D01*
X112139047Y-122654761D01*
X112043809Y-122702380D01*
X111948571Y-122702380D01*
X111853333Y-122654761D01*
X111805714Y-122607142D01*
X111758095Y-122511904D01*
X111710476Y-122321428D01*
X111710476Y-122083333D01*
X111758095Y-121892857D01*
X111805714Y-121797619D01*
X111853333Y-121750000D01*
X111948571Y-121702380D01*
%TO.C,R8*%
X129952380Y-63186666D02*
X129476190Y-63520000D01*
X129952380Y-63758095D02*
X128952380Y-63758095D01*
X128952380Y-63377142D01*
X129000000Y-63281904D01*
X129047619Y-63234285D01*
X129142857Y-63186666D01*
X129285714Y-63186666D01*
X129380952Y-63234285D01*
X129428571Y-63281904D01*
X129476190Y-63377142D01*
X129476190Y-63758095D01*
X129380952Y-62615238D02*
X129333333Y-62710476D01*
X129285714Y-62758095D01*
X129190476Y-62805714D01*
X129142857Y-62805714D01*
X129047619Y-62758095D01*
X129000000Y-62710476D01*
X128952380Y-62615238D01*
X128952380Y-62424761D01*
X129000000Y-62329523D01*
X129047619Y-62281904D01*
X129142857Y-62234285D01*
X129190476Y-62234285D01*
X129285714Y-62281904D01*
X129333333Y-62329523D01*
X129380952Y-62424761D01*
X129380952Y-62615238D01*
X129428571Y-62710476D01*
X129476190Y-62758095D01*
X129571428Y-62805714D01*
X129761904Y-62805714D01*
X129857142Y-62758095D01*
X129904761Y-62710476D01*
X129952380Y-62615238D01*
X129952380Y-62424761D01*
X129904761Y-62329523D01*
X129857142Y-62281904D01*
X129761904Y-62234285D01*
X129571428Y-62234285D01*
X129476190Y-62281904D01*
X129428571Y-62329523D01*
X129380952Y-62424761D01*
%TO.C,C31*%
X150357142Y-104107142D02*
X150309523Y-104154761D01*
X150166666Y-104202380D01*
X150071428Y-104202380D01*
X149928571Y-104154761D01*
X149833333Y-104059523D01*
X149785714Y-103964285D01*
X149738095Y-103773809D01*
X149738095Y-103630952D01*
X149785714Y-103440476D01*
X149833333Y-103345238D01*
X149928571Y-103250000D01*
X150071428Y-103202380D01*
X150166666Y-103202380D01*
X150309523Y-103250000D01*
X150357142Y-103297619D01*
X150690476Y-103202380D02*
X151309523Y-103202380D01*
X150976190Y-103583333D01*
X151119047Y-103583333D01*
X151214285Y-103630952D01*
X151261904Y-103678571D01*
X151309523Y-103773809D01*
X151309523Y-104011904D01*
X151261904Y-104107142D01*
X151214285Y-104154761D01*
X151119047Y-104202380D01*
X150833333Y-104202380D01*
X150738095Y-104154761D01*
X150690476Y-104107142D01*
X152261904Y-104202380D02*
X151690476Y-104202380D01*
X151976190Y-104202380D02*
X151976190Y-103202380D01*
X151880952Y-103345238D01*
X151785714Y-103440476D01*
X151690476Y-103488095D01*
%TO.C,U1*%
X133238095Y-71702380D02*
X133238095Y-72511904D01*
X133285714Y-72607142D01*
X133333333Y-72654761D01*
X133428571Y-72702380D01*
X133619047Y-72702380D01*
X133714285Y-72654761D01*
X133761904Y-72607142D01*
X133809523Y-72511904D01*
X133809523Y-71702380D01*
X134809523Y-72702380D02*
X134238095Y-72702380D01*
X134523809Y-72702380D02*
X134523809Y-71702380D01*
X134428571Y-71845238D01*
X134333333Y-71940476D01*
X134238095Y-71988095D01*
%TO.C,R16*%
X111367142Y-80952380D02*
X111033809Y-80476190D01*
X110795714Y-80952380D02*
X110795714Y-79952380D01*
X111176666Y-79952380D01*
X111271904Y-80000000D01*
X111319523Y-80047619D01*
X111367142Y-80142857D01*
X111367142Y-80285714D01*
X111319523Y-80380952D01*
X111271904Y-80428571D01*
X111176666Y-80476190D01*
X110795714Y-80476190D01*
X112319523Y-80952380D02*
X111748095Y-80952380D01*
X112033809Y-80952380D02*
X112033809Y-79952380D01*
X111938571Y-80095238D01*
X111843333Y-80190476D01*
X111748095Y-80238095D01*
X113176666Y-79952380D02*
X112986190Y-79952380D01*
X112890952Y-80000000D01*
X112843333Y-80047619D01*
X112748095Y-80190476D01*
X112700476Y-80380952D01*
X112700476Y-80761904D01*
X112748095Y-80857142D01*
X112795714Y-80904761D01*
X112890952Y-80952380D01*
X113081428Y-80952380D01*
X113176666Y-80904761D01*
X113224285Y-80857142D01*
X113271904Y-80761904D01*
X113271904Y-80523809D01*
X113224285Y-80428571D01*
X113176666Y-80380952D01*
X113081428Y-80333333D01*
X112890952Y-80333333D01*
X112795714Y-80380952D01*
X112748095Y-80428571D01*
X112700476Y-80523809D01*
%TO.C,C23*%
X110607142Y-94107142D02*
X110559523Y-94154761D01*
X110416666Y-94202380D01*
X110321428Y-94202380D01*
X110178571Y-94154761D01*
X110083333Y-94059523D01*
X110035714Y-93964285D01*
X109988095Y-93773809D01*
X109988095Y-93630952D01*
X110035714Y-93440476D01*
X110083333Y-93345238D01*
X110178571Y-93250000D01*
X110321428Y-93202380D01*
X110416666Y-93202380D01*
X110559523Y-93250000D01*
X110607142Y-93297619D01*
X110988095Y-93297619D02*
X111035714Y-93250000D01*
X111130952Y-93202380D01*
X111369047Y-93202380D01*
X111464285Y-93250000D01*
X111511904Y-93297619D01*
X111559523Y-93392857D01*
X111559523Y-93488095D01*
X111511904Y-93630952D01*
X110940476Y-94202380D01*
X111559523Y-94202380D01*
X111892857Y-93202380D02*
X112511904Y-93202380D01*
X112178571Y-93583333D01*
X112321428Y-93583333D01*
X112416666Y-93630952D01*
X112464285Y-93678571D01*
X112511904Y-93773809D01*
X112511904Y-94011904D01*
X112464285Y-94107142D01*
X112416666Y-94154761D01*
X112321428Y-94202380D01*
X112035714Y-94202380D01*
X111940476Y-94154761D01*
X111892857Y-94107142D01*
%TO.C,D1*%
X150511904Y-59522380D02*
X150511904Y-58522380D01*
X150750000Y-58522380D01*
X150892857Y-58570000D01*
X150988095Y-58665238D01*
X151035714Y-58760476D01*
X151083333Y-58950952D01*
X151083333Y-59093809D01*
X151035714Y-59284285D01*
X150988095Y-59379523D01*
X150892857Y-59474761D01*
X150750000Y-59522380D01*
X150511904Y-59522380D01*
X152035714Y-59522380D02*
X151464285Y-59522380D01*
X151750000Y-59522380D02*
X151750000Y-58522380D01*
X151654761Y-58665238D01*
X151559523Y-58760476D01*
X151464285Y-58808095D01*
%TO.C,R13*%
X113107142Y-66452380D02*
X112773809Y-65976190D01*
X112535714Y-66452380D02*
X112535714Y-65452380D01*
X112916666Y-65452380D01*
X113011904Y-65500000D01*
X113059523Y-65547619D01*
X113107142Y-65642857D01*
X113107142Y-65785714D01*
X113059523Y-65880952D01*
X113011904Y-65928571D01*
X112916666Y-65976190D01*
X112535714Y-65976190D01*
X114059523Y-66452380D02*
X113488095Y-66452380D01*
X113773809Y-66452380D02*
X113773809Y-65452380D01*
X113678571Y-65595238D01*
X113583333Y-65690476D01*
X113488095Y-65738095D01*
X114392857Y-65452380D02*
X115011904Y-65452380D01*
X114678571Y-65833333D01*
X114821428Y-65833333D01*
X114916666Y-65880952D01*
X114964285Y-65928571D01*
X115011904Y-66023809D01*
X115011904Y-66261904D01*
X114964285Y-66357142D01*
X114916666Y-66404761D01*
X114821428Y-66452380D01*
X114535714Y-66452380D01*
X114440476Y-66404761D01*
X114392857Y-66357142D01*
%TO.C,R27*%
X121857142Y-75952380D02*
X121523809Y-75476190D01*
X121285714Y-75952380D02*
X121285714Y-74952380D01*
X121666666Y-74952380D01*
X121761904Y-75000000D01*
X121809523Y-75047619D01*
X121857142Y-75142857D01*
X121857142Y-75285714D01*
X121809523Y-75380952D01*
X121761904Y-75428571D01*
X121666666Y-75476190D01*
X121285714Y-75476190D01*
X122238095Y-75047619D02*
X122285714Y-75000000D01*
X122380952Y-74952380D01*
X122619047Y-74952380D01*
X122714285Y-75000000D01*
X122761904Y-75047619D01*
X122809523Y-75142857D01*
X122809523Y-75238095D01*
X122761904Y-75380952D01*
X122190476Y-75952380D01*
X122809523Y-75952380D01*
X123142857Y-74952380D02*
X123809523Y-74952380D01*
X123380952Y-75952380D01*
%TO.C,R7*%
X132952380Y-63186666D02*
X132476190Y-63520000D01*
X132952380Y-63758095D02*
X131952380Y-63758095D01*
X131952380Y-63377142D01*
X132000000Y-63281904D01*
X132047619Y-63234285D01*
X132142857Y-63186666D01*
X132285714Y-63186666D01*
X132380952Y-63234285D01*
X132428571Y-63281904D01*
X132476190Y-63377142D01*
X132476190Y-63758095D01*
X131952380Y-62853333D02*
X131952380Y-62186666D01*
X132952380Y-62615238D01*
%TO.C,U3*%
X121488095Y-85952380D02*
X121488095Y-86761904D01*
X121535714Y-86857142D01*
X121583333Y-86904761D01*
X121678571Y-86952380D01*
X121869047Y-86952380D01*
X121964285Y-86904761D01*
X122011904Y-86857142D01*
X122059523Y-86761904D01*
X122059523Y-85952380D01*
X122440476Y-85952380D02*
X123059523Y-85952380D01*
X122726190Y-86333333D01*
X122869047Y-86333333D01*
X122964285Y-86380952D01*
X123011904Y-86428571D01*
X123059523Y-86523809D01*
X123059523Y-86761904D01*
X123011904Y-86857142D01*
X122964285Y-86904761D01*
X122869047Y-86952380D01*
X122583333Y-86952380D01*
X122488095Y-86904761D01*
X122440476Y-86857142D01*
%TO.C,C39*%
X155857142Y-102927142D02*
X155809523Y-102974761D01*
X155666666Y-103022380D01*
X155571428Y-103022380D01*
X155428571Y-102974761D01*
X155333333Y-102879523D01*
X155285714Y-102784285D01*
X155238095Y-102593809D01*
X155238095Y-102450952D01*
X155285714Y-102260476D01*
X155333333Y-102165238D01*
X155428571Y-102070000D01*
X155571428Y-102022380D01*
X155666666Y-102022380D01*
X155809523Y-102070000D01*
X155857142Y-102117619D01*
X156190476Y-102022380D02*
X156809523Y-102022380D01*
X156476190Y-102403333D01*
X156619047Y-102403333D01*
X156714285Y-102450952D01*
X156761904Y-102498571D01*
X156809523Y-102593809D01*
X156809523Y-102831904D01*
X156761904Y-102927142D01*
X156714285Y-102974761D01*
X156619047Y-103022380D01*
X156333333Y-103022380D01*
X156238095Y-102974761D01*
X156190476Y-102927142D01*
X157285714Y-103022380D02*
X157476190Y-103022380D01*
X157571428Y-102974761D01*
X157619047Y-102927142D01*
X157714285Y-102784285D01*
X157761904Y-102593809D01*
X157761904Y-102212857D01*
X157714285Y-102117619D01*
X157666666Y-102070000D01*
X157571428Y-102022380D01*
X157380952Y-102022380D01*
X157285714Y-102070000D01*
X157238095Y-102117619D01*
X157190476Y-102212857D01*
X157190476Y-102450952D01*
X157238095Y-102546190D01*
X157285714Y-102593809D01*
X157380952Y-102641428D01*
X157571428Y-102641428D01*
X157666666Y-102593809D01*
X157714285Y-102546190D01*
X157761904Y-102450952D01*
%TO.C,C12*%
X117107142Y-59857142D02*
X117059523Y-59904761D01*
X116916666Y-59952380D01*
X116821428Y-59952380D01*
X116678571Y-59904761D01*
X116583333Y-59809523D01*
X116535714Y-59714285D01*
X116488095Y-59523809D01*
X116488095Y-59380952D01*
X116535714Y-59190476D01*
X116583333Y-59095238D01*
X116678571Y-59000000D01*
X116821428Y-58952380D01*
X116916666Y-58952380D01*
X117059523Y-59000000D01*
X117107142Y-59047619D01*
X118059523Y-59952380D02*
X117488095Y-59952380D01*
X117773809Y-59952380D02*
X117773809Y-58952380D01*
X117678571Y-59095238D01*
X117583333Y-59190476D01*
X117488095Y-59238095D01*
X118440476Y-59047619D02*
X118488095Y-59000000D01*
X118583333Y-58952380D01*
X118821428Y-58952380D01*
X118916666Y-59000000D01*
X118964285Y-59047619D01*
X119011904Y-59142857D01*
X119011904Y-59238095D01*
X118964285Y-59380952D01*
X118392857Y-59952380D01*
X119011904Y-59952380D01*
%TO.C,R21*%
X133452380Y-118382857D02*
X132976190Y-118716190D01*
X133452380Y-118954285D02*
X132452380Y-118954285D01*
X132452380Y-118573333D01*
X132500000Y-118478095D01*
X132547619Y-118430476D01*
X132642857Y-118382857D01*
X132785714Y-118382857D01*
X132880952Y-118430476D01*
X132928571Y-118478095D01*
X132976190Y-118573333D01*
X132976190Y-118954285D01*
X132547619Y-118001904D02*
X132500000Y-117954285D01*
X132452380Y-117859047D01*
X132452380Y-117620952D01*
X132500000Y-117525714D01*
X132547619Y-117478095D01*
X132642857Y-117430476D01*
X132738095Y-117430476D01*
X132880952Y-117478095D01*
X133452380Y-118049523D01*
X133452380Y-117430476D01*
X133452380Y-116478095D02*
X133452380Y-117049523D01*
X133452380Y-116763809D02*
X132452380Y-116763809D01*
X132595238Y-116859047D01*
X132690476Y-116954285D01*
X132738095Y-117049523D01*
%TO.C,C18*%
X155857142Y-122107142D02*
X155809523Y-122154761D01*
X155666666Y-122202380D01*
X155571428Y-122202380D01*
X155428571Y-122154761D01*
X155333333Y-122059523D01*
X155285714Y-121964285D01*
X155238095Y-121773809D01*
X155238095Y-121630952D01*
X155285714Y-121440476D01*
X155333333Y-121345238D01*
X155428571Y-121250000D01*
X155571428Y-121202380D01*
X155666666Y-121202380D01*
X155809523Y-121250000D01*
X155857142Y-121297619D01*
X156809523Y-122202380D02*
X156238095Y-122202380D01*
X156523809Y-122202380D02*
X156523809Y-121202380D01*
X156428571Y-121345238D01*
X156333333Y-121440476D01*
X156238095Y-121488095D01*
X157380952Y-121630952D02*
X157285714Y-121583333D01*
X157238095Y-121535714D01*
X157190476Y-121440476D01*
X157190476Y-121392857D01*
X157238095Y-121297619D01*
X157285714Y-121250000D01*
X157380952Y-121202380D01*
X157571428Y-121202380D01*
X157666666Y-121250000D01*
X157714285Y-121297619D01*
X157761904Y-121392857D01*
X157761904Y-121440476D01*
X157714285Y-121535714D01*
X157666666Y-121583333D01*
X157571428Y-121630952D01*
X157380952Y-121630952D01*
X157285714Y-121678571D01*
X157238095Y-121726190D01*
X157190476Y-121821428D01*
X157190476Y-122011904D01*
X157238095Y-122107142D01*
X157285714Y-122154761D01*
X157380952Y-122202380D01*
X157571428Y-122202380D01*
X157666666Y-122154761D01*
X157714285Y-122107142D01*
X157761904Y-122011904D01*
X157761904Y-121821428D01*
X157714285Y-121726190D01*
X157666666Y-121678571D01*
X157571428Y-121630952D01*
%TO.C,R17*%
X111347142Y-83952380D02*
X111013809Y-83476190D01*
X110775714Y-83952380D02*
X110775714Y-82952380D01*
X111156666Y-82952380D01*
X111251904Y-83000000D01*
X111299523Y-83047619D01*
X111347142Y-83142857D01*
X111347142Y-83285714D01*
X111299523Y-83380952D01*
X111251904Y-83428571D01*
X111156666Y-83476190D01*
X110775714Y-83476190D01*
X112299523Y-83952380D02*
X111728095Y-83952380D01*
X112013809Y-83952380D02*
X112013809Y-82952380D01*
X111918571Y-83095238D01*
X111823333Y-83190476D01*
X111728095Y-83238095D01*
X112632857Y-82952380D02*
X113299523Y-82952380D01*
X112870952Y-83952380D01*
%TO.C,C38*%
X115607142Y-123357142D02*
X115559523Y-123404761D01*
X115416666Y-123452380D01*
X115321428Y-123452380D01*
X115178571Y-123404761D01*
X115083333Y-123309523D01*
X115035714Y-123214285D01*
X114988095Y-123023809D01*
X114988095Y-122880952D01*
X115035714Y-122690476D01*
X115083333Y-122595238D01*
X115178571Y-122500000D01*
X115321428Y-122452380D01*
X115416666Y-122452380D01*
X115559523Y-122500000D01*
X115607142Y-122547619D01*
X115940476Y-122452380D02*
X116559523Y-122452380D01*
X116226190Y-122833333D01*
X116369047Y-122833333D01*
X116464285Y-122880952D01*
X116511904Y-122928571D01*
X116559523Y-123023809D01*
X116559523Y-123261904D01*
X116511904Y-123357142D01*
X116464285Y-123404761D01*
X116369047Y-123452380D01*
X116083333Y-123452380D01*
X115988095Y-123404761D01*
X115940476Y-123357142D01*
X117130952Y-122880952D02*
X117035714Y-122833333D01*
X116988095Y-122785714D01*
X116940476Y-122690476D01*
X116940476Y-122642857D01*
X116988095Y-122547619D01*
X117035714Y-122500000D01*
X117130952Y-122452380D01*
X117321428Y-122452380D01*
X117416666Y-122500000D01*
X117464285Y-122547619D01*
X117511904Y-122642857D01*
X117511904Y-122690476D01*
X117464285Y-122785714D01*
X117416666Y-122833333D01*
X117321428Y-122880952D01*
X117130952Y-122880952D01*
X117035714Y-122928571D01*
X116988095Y-122976190D01*
X116940476Y-123071428D01*
X116940476Y-123261904D01*
X116988095Y-123357142D01*
X117035714Y-123404761D01*
X117130952Y-123452380D01*
X117321428Y-123452380D01*
X117416666Y-123404761D01*
X117464285Y-123357142D01*
X117511904Y-123261904D01*
X117511904Y-123071428D01*
X117464285Y-122976190D01*
X117416666Y-122928571D01*
X117321428Y-122880952D01*
%TO.C,U6*%
X143988095Y-85952380D02*
X143988095Y-86761904D01*
X144035714Y-86857142D01*
X144083333Y-86904761D01*
X144178571Y-86952380D01*
X144369047Y-86952380D01*
X144464285Y-86904761D01*
X144511904Y-86857142D01*
X144559523Y-86761904D01*
X144559523Y-85952380D01*
X145464285Y-85952380D02*
X145273809Y-85952380D01*
X145178571Y-86000000D01*
X145130952Y-86047619D01*
X145035714Y-86190476D01*
X144988095Y-86380952D01*
X144988095Y-86761904D01*
X145035714Y-86857142D01*
X145083333Y-86904761D01*
X145178571Y-86952380D01*
X145369047Y-86952380D01*
X145464285Y-86904761D01*
X145511904Y-86857142D01*
X145559523Y-86761904D01*
X145559523Y-86523809D01*
X145511904Y-86428571D01*
X145464285Y-86380952D01*
X145369047Y-86333333D01*
X145178571Y-86333333D01*
X145083333Y-86380952D01*
X145035714Y-86428571D01*
X144988095Y-86523809D01*
%TO.C,SDA*%
X113035714Y-72904761D02*
X113178571Y-72952380D01*
X113416666Y-72952380D01*
X113511904Y-72904761D01*
X113559523Y-72857142D01*
X113607142Y-72761904D01*
X113607142Y-72666666D01*
X113559523Y-72571428D01*
X113511904Y-72523809D01*
X113416666Y-72476190D01*
X113226190Y-72428571D01*
X113130952Y-72380952D01*
X113083333Y-72333333D01*
X113035714Y-72238095D01*
X113035714Y-72142857D01*
X113083333Y-72047619D01*
X113130952Y-72000000D01*
X113226190Y-71952380D01*
X113464285Y-71952380D01*
X113607142Y-72000000D01*
X114035714Y-72952380D02*
X114035714Y-71952380D01*
X114273809Y-71952380D01*
X114416666Y-72000000D01*
X114511904Y-72095238D01*
X114559523Y-72190476D01*
X114607142Y-72380952D01*
X114607142Y-72523809D01*
X114559523Y-72714285D01*
X114511904Y-72809523D01*
X114416666Y-72904761D01*
X114273809Y-72952380D01*
X114035714Y-72952380D01*
X114988095Y-72666666D02*
X115464285Y-72666666D01*
X114892857Y-72952380D02*
X115226190Y-71952380D01*
X115559523Y-72952380D01*
%TO.C,C21*%
X133607142Y-122857142D02*
X133559523Y-122904761D01*
X133416666Y-122952380D01*
X133321428Y-122952380D01*
X133178571Y-122904761D01*
X133083333Y-122809523D01*
X133035714Y-122714285D01*
X132988095Y-122523809D01*
X132988095Y-122380952D01*
X133035714Y-122190476D01*
X133083333Y-122095238D01*
X133178571Y-122000000D01*
X133321428Y-121952380D01*
X133416666Y-121952380D01*
X133559523Y-122000000D01*
X133607142Y-122047619D01*
X133988095Y-122047619D02*
X134035714Y-122000000D01*
X134130952Y-121952380D01*
X134369047Y-121952380D01*
X134464285Y-122000000D01*
X134511904Y-122047619D01*
X134559523Y-122142857D01*
X134559523Y-122238095D01*
X134511904Y-122380952D01*
X133940476Y-122952380D01*
X134559523Y-122952380D01*
X135511904Y-122952380D02*
X134940476Y-122952380D01*
X135226190Y-122952380D02*
X135226190Y-121952380D01*
X135130952Y-122095238D01*
X135035714Y-122190476D01*
X134940476Y-122238095D01*
%TO.C,R9*%
X126952380Y-63196666D02*
X126476190Y-63530000D01*
X126952380Y-63768095D02*
X125952380Y-63768095D01*
X125952380Y-63387142D01*
X126000000Y-63291904D01*
X126047619Y-63244285D01*
X126142857Y-63196666D01*
X126285714Y-63196666D01*
X126380952Y-63244285D01*
X126428571Y-63291904D01*
X126476190Y-63387142D01*
X126476190Y-63768095D01*
X126952380Y-62720476D02*
X126952380Y-62530000D01*
X126904761Y-62434761D01*
X126857142Y-62387142D01*
X126714285Y-62291904D01*
X126523809Y-62244285D01*
X126142857Y-62244285D01*
X126047619Y-62291904D01*
X126000000Y-62339523D01*
X125952380Y-62434761D01*
X125952380Y-62625238D01*
X126000000Y-62720476D01*
X126047619Y-62768095D01*
X126142857Y-62815714D01*
X126380952Y-62815714D01*
X126476190Y-62768095D01*
X126523809Y-62720476D01*
X126571428Y-62625238D01*
X126571428Y-62434761D01*
X126523809Y-62339523D01*
X126476190Y-62291904D01*
X126380952Y-62244285D01*
%TO.C,R20*%
X111367142Y-85452380D02*
X111033809Y-84976190D01*
X110795714Y-85452380D02*
X110795714Y-84452380D01*
X111176666Y-84452380D01*
X111271904Y-84500000D01*
X111319523Y-84547619D01*
X111367142Y-84642857D01*
X111367142Y-84785714D01*
X111319523Y-84880952D01*
X111271904Y-84928571D01*
X111176666Y-84976190D01*
X110795714Y-84976190D01*
X111748095Y-84547619D02*
X111795714Y-84500000D01*
X111890952Y-84452380D01*
X112129047Y-84452380D01*
X112224285Y-84500000D01*
X112271904Y-84547619D01*
X112319523Y-84642857D01*
X112319523Y-84738095D01*
X112271904Y-84880952D01*
X111700476Y-85452380D01*
X112319523Y-85452380D01*
X112938571Y-84452380D02*
X113033809Y-84452380D01*
X113129047Y-84500000D01*
X113176666Y-84547619D01*
X113224285Y-84642857D01*
X113271904Y-84833333D01*
X113271904Y-85071428D01*
X113224285Y-85261904D01*
X113176666Y-85357142D01*
X113129047Y-85404761D01*
X113033809Y-85452380D01*
X112938571Y-85452380D01*
X112843333Y-85404761D01*
X112795714Y-85357142D01*
X112748095Y-85261904D01*
X112700476Y-85071428D01*
X112700476Y-84833333D01*
X112748095Y-84642857D01*
X112795714Y-84547619D01*
X112843333Y-84500000D01*
X112938571Y-84452380D01*
%TO.C,C37*%
X127607142Y-123357142D02*
X127559523Y-123404761D01*
X127416666Y-123452380D01*
X127321428Y-123452380D01*
X127178571Y-123404761D01*
X127083333Y-123309523D01*
X127035714Y-123214285D01*
X126988095Y-123023809D01*
X126988095Y-122880952D01*
X127035714Y-122690476D01*
X127083333Y-122595238D01*
X127178571Y-122500000D01*
X127321428Y-122452380D01*
X127416666Y-122452380D01*
X127559523Y-122500000D01*
X127607142Y-122547619D01*
X127940476Y-122452380D02*
X128559523Y-122452380D01*
X128226190Y-122833333D01*
X128369047Y-122833333D01*
X128464285Y-122880952D01*
X128511904Y-122928571D01*
X128559523Y-123023809D01*
X128559523Y-123261904D01*
X128511904Y-123357142D01*
X128464285Y-123404761D01*
X128369047Y-123452380D01*
X128083333Y-123452380D01*
X127988095Y-123404761D01*
X127940476Y-123357142D01*
X128892857Y-122452380D02*
X129559523Y-122452380D01*
X129130952Y-123452380D01*
%TO.C,R5*%
X123202380Y-70926666D02*
X122726190Y-71260000D01*
X123202380Y-71498095D02*
X122202380Y-71498095D01*
X122202380Y-71117142D01*
X122250000Y-71021904D01*
X122297619Y-70974285D01*
X122392857Y-70926666D01*
X122535714Y-70926666D01*
X122630952Y-70974285D01*
X122678571Y-71021904D01*
X122726190Y-71117142D01*
X122726190Y-71498095D01*
X122202380Y-70021904D02*
X122202380Y-70498095D01*
X122678571Y-70545714D01*
X122630952Y-70498095D01*
X122583333Y-70402857D01*
X122583333Y-70164761D01*
X122630952Y-70069523D01*
X122678571Y-70021904D01*
X122773809Y-69974285D01*
X123011904Y-69974285D01*
X123107142Y-70021904D01*
X123154761Y-70069523D01*
X123202380Y-70164761D01*
X123202380Y-70402857D01*
X123154761Y-70498095D01*
X123107142Y-70545714D01*
%TO.C,U5*%
X144988095Y-104702380D02*
X144988095Y-105511904D01*
X145035714Y-105607142D01*
X145083333Y-105654761D01*
X145178571Y-105702380D01*
X145369047Y-105702380D01*
X145464285Y-105654761D01*
X145511904Y-105607142D01*
X145559523Y-105511904D01*
X145559523Y-104702380D01*
X146511904Y-104702380D02*
X146035714Y-104702380D01*
X145988095Y-105178571D01*
X146035714Y-105130952D01*
X146130952Y-105083333D01*
X146369047Y-105083333D01*
X146464285Y-105130952D01*
X146511904Y-105178571D01*
X146559523Y-105273809D01*
X146559523Y-105511904D01*
X146511904Y-105607142D01*
X146464285Y-105654761D01*
X146369047Y-105702380D01*
X146130952Y-105702380D01*
X146035714Y-105654761D01*
X145988095Y-105607142D01*
%TO.C,C19*%
X110587142Y-91357142D02*
X110539523Y-91404761D01*
X110396666Y-91452380D01*
X110301428Y-91452380D01*
X110158571Y-91404761D01*
X110063333Y-91309523D01*
X110015714Y-91214285D01*
X109968095Y-91023809D01*
X109968095Y-90880952D01*
X110015714Y-90690476D01*
X110063333Y-90595238D01*
X110158571Y-90500000D01*
X110301428Y-90452380D01*
X110396666Y-90452380D01*
X110539523Y-90500000D01*
X110587142Y-90547619D01*
X111539523Y-91452380D02*
X110968095Y-91452380D01*
X111253809Y-91452380D02*
X111253809Y-90452380D01*
X111158571Y-90595238D01*
X111063333Y-90690476D01*
X110968095Y-90738095D01*
X112015714Y-91452380D02*
X112206190Y-91452380D01*
X112301428Y-91404761D01*
X112349047Y-91357142D01*
X112444285Y-91214285D01*
X112491904Y-91023809D01*
X112491904Y-90642857D01*
X112444285Y-90547619D01*
X112396666Y-90500000D01*
X112301428Y-90452380D01*
X112110952Y-90452380D01*
X112015714Y-90500000D01*
X111968095Y-90547619D01*
X111920476Y-90642857D01*
X111920476Y-90880952D01*
X111968095Y-90976190D01*
X112015714Y-91023809D01*
X112110952Y-91071428D01*
X112301428Y-91071428D01*
X112396666Y-91023809D01*
X112444285Y-90976190D01*
X112491904Y-90880952D01*
%TO.C,C34*%
X110607142Y-110107142D02*
X110559523Y-110154761D01*
X110416666Y-110202380D01*
X110321428Y-110202380D01*
X110178571Y-110154761D01*
X110083333Y-110059523D01*
X110035714Y-109964285D01*
X109988095Y-109773809D01*
X109988095Y-109630952D01*
X110035714Y-109440476D01*
X110083333Y-109345238D01*
X110178571Y-109250000D01*
X110321428Y-109202380D01*
X110416666Y-109202380D01*
X110559523Y-109250000D01*
X110607142Y-109297619D01*
X110940476Y-109202380D02*
X111559523Y-109202380D01*
X111226190Y-109583333D01*
X111369047Y-109583333D01*
X111464285Y-109630952D01*
X111511904Y-109678571D01*
X111559523Y-109773809D01*
X111559523Y-110011904D01*
X111511904Y-110107142D01*
X111464285Y-110154761D01*
X111369047Y-110202380D01*
X111083333Y-110202380D01*
X110988095Y-110154761D01*
X110940476Y-110107142D01*
X112416666Y-109535714D02*
X112416666Y-110202380D01*
X112178571Y-109154761D02*
X111940476Y-109869047D01*
X112559523Y-109869047D01*
%TO.C,R3*%
X126202380Y-70916666D02*
X125726190Y-71250000D01*
X126202380Y-71488095D02*
X125202380Y-71488095D01*
X125202380Y-71107142D01*
X125250000Y-71011904D01*
X125297619Y-70964285D01*
X125392857Y-70916666D01*
X125535714Y-70916666D01*
X125630952Y-70964285D01*
X125678571Y-71011904D01*
X125726190Y-71107142D01*
X125726190Y-71488095D01*
X125202380Y-70583333D02*
X125202380Y-69964285D01*
X125583333Y-70297619D01*
X125583333Y-70154761D01*
X125630952Y-70059523D01*
X125678571Y-70011904D01*
X125773809Y-69964285D01*
X126011904Y-69964285D01*
X126107142Y-70011904D01*
X126154761Y-70059523D01*
X126202380Y-70154761D01*
X126202380Y-70440476D01*
X126154761Y-70535714D01*
X126107142Y-70583333D01*
%TO.C,R6*%
X121702380Y-70926666D02*
X121226190Y-71260000D01*
X121702380Y-71498095D02*
X120702380Y-71498095D01*
X120702380Y-71117142D01*
X120750000Y-71021904D01*
X120797619Y-70974285D01*
X120892857Y-70926666D01*
X121035714Y-70926666D01*
X121130952Y-70974285D01*
X121178571Y-71021904D01*
X121226190Y-71117142D01*
X121226190Y-71498095D01*
X120702380Y-70069523D02*
X120702380Y-70260000D01*
X120750000Y-70355238D01*
X120797619Y-70402857D01*
X120940476Y-70498095D01*
X121130952Y-70545714D01*
X121511904Y-70545714D01*
X121607142Y-70498095D01*
X121654761Y-70450476D01*
X121702380Y-70355238D01*
X121702380Y-70164761D01*
X121654761Y-70069523D01*
X121607142Y-70021904D01*
X121511904Y-69974285D01*
X121273809Y-69974285D01*
X121178571Y-70021904D01*
X121130952Y-70069523D01*
X121083333Y-70164761D01*
X121083333Y-70355238D01*
X121130952Y-70450476D01*
X121178571Y-70498095D01*
X121273809Y-70545714D01*
%TO.C,R24*%
X133452380Y-112642857D02*
X132976190Y-112976190D01*
X133452380Y-113214285D02*
X132452380Y-113214285D01*
X132452380Y-112833333D01*
X132500000Y-112738095D01*
X132547619Y-112690476D01*
X132642857Y-112642857D01*
X132785714Y-112642857D01*
X132880952Y-112690476D01*
X132928571Y-112738095D01*
X132976190Y-112833333D01*
X132976190Y-113214285D01*
X132547619Y-112261904D02*
X132500000Y-112214285D01*
X132452380Y-112119047D01*
X132452380Y-111880952D01*
X132500000Y-111785714D01*
X132547619Y-111738095D01*
X132642857Y-111690476D01*
X132738095Y-111690476D01*
X132880952Y-111738095D01*
X133452380Y-112309523D01*
X133452380Y-111690476D01*
X132785714Y-110833333D02*
X133452380Y-110833333D01*
X132404761Y-111071428D02*
X133119047Y-111309523D01*
X133119047Y-110690476D01*
%TO.C,R15*%
X153857142Y-59702380D02*
X153523809Y-59226190D01*
X153285714Y-59702380D02*
X153285714Y-58702380D01*
X153666666Y-58702380D01*
X153761904Y-58750000D01*
X153809523Y-58797619D01*
X153857142Y-58892857D01*
X153857142Y-59035714D01*
X153809523Y-59130952D01*
X153761904Y-59178571D01*
X153666666Y-59226190D01*
X153285714Y-59226190D01*
X154809523Y-59702380D02*
X154238095Y-59702380D01*
X154523809Y-59702380D02*
X154523809Y-58702380D01*
X154428571Y-58845238D01*
X154333333Y-58940476D01*
X154238095Y-58988095D01*
X155714285Y-58702380D02*
X155238095Y-58702380D01*
X155190476Y-59178571D01*
X155238095Y-59130952D01*
X155333333Y-59083333D01*
X155571428Y-59083333D01*
X155666666Y-59130952D01*
X155714285Y-59178571D01*
X155761904Y-59273809D01*
X155761904Y-59511904D01*
X155714285Y-59607142D01*
X155666666Y-59654761D01*
X155571428Y-59702380D01*
X155333333Y-59702380D01*
X155238095Y-59654761D01*
X155190476Y-59607142D01*
%TO.C,C13*%
X117607142Y-69617857D02*
X117654761Y-69665476D01*
X117702380Y-69808333D01*
X117702380Y-69903571D01*
X117654761Y-70046428D01*
X117559523Y-70141666D01*
X117464285Y-70189285D01*
X117273809Y-70236904D01*
X117130952Y-70236904D01*
X116940476Y-70189285D01*
X116845238Y-70141666D01*
X116750000Y-70046428D01*
X116702380Y-69903571D01*
X116702380Y-69808333D01*
X116750000Y-69665476D01*
X116797619Y-69617857D01*
X117702380Y-68665476D02*
X117702380Y-69236904D01*
X117702380Y-68951190D02*
X116702380Y-68951190D01*
X116845238Y-69046428D01*
X116940476Y-69141666D01*
X116988095Y-69236904D01*
X116702380Y-68332142D02*
X116702380Y-67713095D01*
X117083333Y-68046428D01*
X117083333Y-67903571D01*
X117130952Y-67808333D01*
X117178571Y-67760714D01*
X117273809Y-67713095D01*
X117511904Y-67713095D01*
X117607142Y-67760714D01*
X117654761Y-67808333D01*
X117702380Y-67903571D01*
X117702380Y-68189285D01*
X117654761Y-68284523D01*
X117607142Y-68332142D01*
%TO.C,SCL*%
X113059523Y-70654761D02*
X113202380Y-70702380D01*
X113440476Y-70702380D01*
X113535714Y-70654761D01*
X113583333Y-70607142D01*
X113630952Y-70511904D01*
X113630952Y-70416666D01*
X113583333Y-70321428D01*
X113535714Y-70273809D01*
X113440476Y-70226190D01*
X113250000Y-70178571D01*
X113154761Y-70130952D01*
X113107142Y-70083333D01*
X113059523Y-69988095D01*
X113059523Y-69892857D01*
X113107142Y-69797619D01*
X113154761Y-69750000D01*
X113250000Y-69702380D01*
X113488095Y-69702380D01*
X113630952Y-69750000D01*
X114630952Y-70607142D02*
X114583333Y-70654761D01*
X114440476Y-70702380D01*
X114345238Y-70702380D01*
X114202380Y-70654761D01*
X114107142Y-70559523D01*
X114059523Y-70464285D01*
X114011904Y-70273809D01*
X114011904Y-70130952D01*
X114059523Y-69940476D01*
X114107142Y-69845238D01*
X114202380Y-69750000D01*
X114345238Y-69702380D01*
X114440476Y-69702380D01*
X114583333Y-69750000D01*
X114630952Y-69797619D01*
X115535714Y-70702380D02*
X115059523Y-70702380D01*
X115059523Y-69702380D01*
%TO.C,R11*%
X123952380Y-63162857D02*
X123476190Y-63496190D01*
X123952380Y-63734285D02*
X122952380Y-63734285D01*
X122952380Y-63353333D01*
X123000000Y-63258095D01*
X123047619Y-63210476D01*
X123142857Y-63162857D01*
X123285714Y-63162857D01*
X123380952Y-63210476D01*
X123428571Y-63258095D01*
X123476190Y-63353333D01*
X123476190Y-63734285D01*
X123952380Y-62210476D02*
X123952380Y-62781904D01*
X123952380Y-62496190D02*
X122952380Y-62496190D01*
X123095238Y-62591428D01*
X123190476Y-62686666D01*
X123238095Y-62781904D01*
X123952380Y-61258095D02*
X123952380Y-61829523D01*
X123952380Y-61543809D02*
X122952380Y-61543809D01*
X123095238Y-61639047D01*
X123190476Y-61734285D01*
X123238095Y-61829523D01*
%TO.C,U2*%
X117238095Y-61952380D02*
X117238095Y-62761904D01*
X117285714Y-62857142D01*
X117333333Y-62904761D01*
X117428571Y-62952380D01*
X117619047Y-62952380D01*
X117714285Y-62904761D01*
X117761904Y-62857142D01*
X117809523Y-62761904D01*
X117809523Y-61952380D01*
X118238095Y-62047619D02*
X118285714Y-62000000D01*
X118380952Y-61952380D01*
X118619047Y-61952380D01*
X118714285Y-62000000D01*
X118761904Y-62047619D01*
X118809523Y-62142857D01*
X118809523Y-62238095D01*
X118761904Y-62380952D01*
X118190476Y-62952380D01*
X118809523Y-62952380D01*
%TO.C,RN2*%
X140909523Y-63722380D02*
X140576190Y-63246190D01*
X140338095Y-63722380D02*
X140338095Y-62722380D01*
X140719047Y-62722380D01*
X140814285Y-62770000D01*
X140861904Y-62817619D01*
X140909523Y-62912857D01*
X140909523Y-63055714D01*
X140861904Y-63150952D01*
X140814285Y-63198571D01*
X140719047Y-63246190D01*
X140338095Y-63246190D01*
X141338095Y-63722380D02*
X141338095Y-62722380D01*
X141909523Y-63722380D01*
X141909523Y-62722380D01*
X142338095Y-62817619D02*
X142385714Y-62770000D01*
X142480952Y-62722380D01*
X142719047Y-62722380D01*
X142814285Y-62770000D01*
X142861904Y-62817619D01*
X142909523Y-62912857D01*
X142909523Y-63008095D01*
X142861904Y-63150952D01*
X142290476Y-63722380D01*
X142909523Y-63722380D01*
%TO.C,C32*%
X135357142Y-99392857D02*
X135404761Y-99440476D01*
X135452380Y-99583333D01*
X135452380Y-99678571D01*
X135404761Y-99821428D01*
X135309523Y-99916666D01*
X135214285Y-99964285D01*
X135023809Y-100011904D01*
X134880952Y-100011904D01*
X134690476Y-99964285D01*
X134595238Y-99916666D01*
X134500000Y-99821428D01*
X134452380Y-99678571D01*
X134452380Y-99583333D01*
X134500000Y-99440476D01*
X134547619Y-99392857D01*
X134452380Y-99059523D02*
X134452380Y-98440476D01*
X134833333Y-98773809D01*
X134833333Y-98630952D01*
X134880952Y-98535714D01*
X134928571Y-98488095D01*
X135023809Y-98440476D01*
X135261904Y-98440476D01*
X135357142Y-98488095D01*
X135404761Y-98535714D01*
X135452380Y-98630952D01*
X135452380Y-98916666D01*
X135404761Y-99011904D01*
X135357142Y-99059523D01*
X134547619Y-98059523D02*
X134500000Y-98011904D01*
X134452380Y-97916666D01*
X134452380Y-97678571D01*
X134500000Y-97583333D01*
X134547619Y-97535714D01*
X134642857Y-97488095D01*
X134738095Y-97488095D01*
X134880952Y-97535714D01*
X135452380Y-98107142D01*
X135452380Y-97488095D01*
%TO.C,R10*%
X125452380Y-63162857D02*
X124976190Y-63496190D01*
X125452380Y-63734285D02*
X124452380Y-63734285D01*
X124452380Y-63353333D01*
X124500000Y-63258095D01*
X124547619Y-63210476D01*
X124642857Y-63162857D01*
X124785714Y-63162857D01*
X124880952Y-63210476D01*
X124928571Y-63258095D01*
X124976190Y-63353333D01*
X124976190Y-63734285D01*
X125452380Y-62210476D02*
X125452380Y-62781904D01*
X125452380Y-62496190D02*
X124452380Y-62496190D01*
X124595238Y-62591428D01*
X124690476Y-62686666D01*
X124738095Y-62781904D01*
X124452380Y-61591428D02*
X124452380Y-61496190D01*
X124500000Y-61400952D01*
X124547619Y-61353333D01*
X124642857Y-61305714D01*
X124833333Y-61258095D01*
X125071428Y-61258095D01*
X125261904Y-61305714D01*
X125357142Y-61353333D01*
X125404761Y-61400952D01*
X125452380Y-61496190D01*
X125452380Y-61591428D01*
X125404761Y-61686666D01*
X125357142Y-61734285D01*
X125261904Y-61781904D01*
X125071428Y-61829523D01*
X124833333Y-61829523D01*
X124642857Y-61781904D01*
X124547619Y-61734285D01*
X124500000Y-61686666D01*
X124452380Y-61591428D01*
%TO.C,R18*%
X111347142Y-82452380D02*
X111013809Y-81976190D01*
X110775714Y-82452380D02*
X110775714Y-81452380D01*
X111156666Y-81452380D01*
X111251904Y-81500000D01*
X111299523Y-81547619D01*
X111347142Y-81642857D01*
X111347142Y-81785714D01*
X111299523Y-81880952D01*
X111251904Y-81928571D01*
X111156666Y-81976190D01*
X110775714Y-81976190D01*
X112299523Y-82452380D02*
X111728095Y-82452380D01*
X112013809Y-82452380D02*
X112013809Y-81452380D01*
X111918571Y-81595238D01*
X111823333Y-81690476D01*
X111728095Y-81738095D01*
X112870952Y-81880952D02*
X112775714Y-81833333D01*
X112728095Y-81785714D01*
X112680476Y-81690476D01*
X112680476Y-81642857D01*
X112728095Y-81547619D01*
X112775714Y-81500000D01*
X112870952Y-81452380D01*
X113061428Y-81452380D01*
X113156666Y-81500000D01*
X113204285Y-81547619D01*
X113251904Y-81642857D01*
X113251904Y-81690476D01*
X113204285Y-81785714D01*
X113156666Y-81833333D01*
X113061428Y-81880952D01*
X112870952Y-81880952D01*
X112775714Y-81928571D01*
X112728095Y-81976190D01*
X112680476Y-82071428D01*
X112680476Y-82261904D01*
X112728095Y-82357142D01*
X112775714Y-82404761D01*
X112870952Y-82452380D01*
X113061428Y-82452380D01*
X113156666Y-82404761D01*
X113204285Y-82357142D01*
X113251904Y-82261904D01*
X113251904Y-82071428D01*
X113204285Y-81976190D01*
X113156666Y-81928571D01*
X113061428Y-81880952D01*
%TO.C,R1*%
X131452380Y-63186666D02*
X130976190Y-63520000D01*
X131452380Y-63758095D02*
X130452380Y-63758095D01*
X130452380Y-63377142D01*
X130500000Y-63281904D01*
X130547619Y-63234285D01*
X130642857Y-63186666D01*
X130785714Y-63186666D01*
X130880952Y-63234285D01*
X130928571Y-63281904D01*
X130976190Y-63377142D01*
X130976190Y-63758095D01*
X131452380Y-62234285D02*
X131452380Y-62805714D01*
X131452380Y-62520000D02*
X130452380Y-62520000D01*
X130595238Y-62615238D01*
X130690476Y-62710476D01*
X130738095Y-62805714D01*
%TO.C,C26*%
X139107142Y-123357142D02*
X139059523Y-123404761D01*
X138916666Y-123452380D01*
X138821428Y-123452380D01*
X138678571Y-123404761D01*
X138583333Y-123309523D01*
X138535714Y-123214285D01*
X138488095Y-123023809D01*
X138488095Y-122880952D01*
X138535714Y-122690476D01*
X138583333Y-122595238D01*
X138678571Y-122500000D01*
X138821428Y-122452380D01*
X138916666Y-122452380D01*
X139059523Y-122500000D01*
X139107142Y-122547619D01*
X139488095Y-122547619D02*
X139535714Y-122500000D01*
X139630952Y-122452380D01*
X139869047Y-122452380D01*
X139964285Y-122500000D01*
X140011904Y-122547619D01*
X140059523Y-122642857D01*
X140059523Y-122738095D01*
X140011904Y-122880952D01*
X139440476Y-123452380D01*
X140059523Y-123452380D01*
X140916666Y-122452380D02*
X140726190Y-122452380D01*
X140630952Y-122500000D01*
X140583333Y-122547619D01*
X140488095Y-122690476D01*
X140440476Y-122880952D01*
X140440476Y-123261904D01*
X140488095Y-123357142D01*
X140535714Y-123404761D01*
X140630952Y-123452380D01*
X140821428Y-123452380D01*
X140916666Y-123404761D01*
X140964285Y-123357142D01*
X141011904Y-123261904D01*
X141011904Y-123023809D01*
X140964285Y-122928571D01*
X140916666Y-122880952D01*
X140821428Y-122833333D01*
X140630952Y-122833333D01*
X140535714Y-122880952D01*
X140488095Y-122928571D01*
X140440476Y-123023809D01*
D11*
%TO.C,R4*%
X124630000Y-68596359D02*
X124630000Y-68903641D01*
X123870000Y-68596359D02*
X123870000Y-68903641D01*
%TO.C,C1*%
X120988748Y-59015000D02*
X121511252Y-59015000D01*
X120988748Y-60485000D02*
X121511252Y-60485000D01*
%TO.C,C27*%
X114609420Y-104760000D02*
X114890580Y-104760000D01*
X114609420Y-103740000D02*
X114890580Y-103740000D01*
%TO.C,C36*%
X156662164Y-94640000D02*
X156877836Y-94640000D01*
X156662164Y-95360000D02*
X156877836Y-95360000D01*
%TO.C,RST*%
X111050000Y-75450000D02*
X111050000Y-74050000D01*
X112450000Y-74050000D02*
X112450000Y-75450000D01*
X111050000Y-74050000D02*
X112450000Y-74050000D01*
X112450000Y-75450000D02*
X111050000Y-75450000D01*
%TO.C,C17*%
X156642164Y-107360000D02*
X156857836Y-107360000D01*
X156642164Y-106640000D02*
X156857836Y-106640000D01*
%TO.C,C40*%
X155584420Y-85490000D02*
X155865580Y-85490000D01*
X155584420Y-86510000D02*
X155865580Y-86510000D01*
%TO.C,R12*%
X121620000Y-64866359D02*
X121620000Y-65173641D01*
X122380000Y-64866359D02*
X122380000Y-65173641D01*
%TO.C,R2*%
X128380000Y-64866359D02*
X128380000Y-65173641D01*
X127620000Y-64866359D02*
X127620000Y-65173641D01*
%TO.C,GND*%
X112450000Y-77700000D02*
X111050000Y-77700000D01*
X111050000Y-77700000D02*
X111050000Y-76300000D01*
X112450000Y-76300000D02*
X112450000Y-77700000D01*
X111050000Y-76300000D02*
X112450000Y-76300000D01*
%TO.C,RN4*%
X136180000Y-64770000D02*
X136180000Y-65270000D01*
X133820000Y-64770000D02*
X133820000Y-65270000D01*
%TO.C,C25*%
X148890580Y-122490000D02*
X148609420Y-122490000D01*
X148890580Y-123510000D02*
X148609420Y-123510000D01*
%TO.C,C33*%
X111357836Y-106640000D02*
X111142164Y-106640000D01*
X111357836Y-107360000D02*
X111142164Y-107360000D01*
%TO.C,C20*%
X111357836Y-100640000D02*
X111142164Y-100640000D01*
X111357836Y-101360000D02*
X111142164Y-101360000D01*
%TO.C,C35*%
X137360000Y-85857836D02*
X137360000Y-85642164D01*
X136640000Y-85857836D02*
X136640000Y-85642164D01*
%TO.C,RN3*%
X139430000Y-64770000D02*
X139430000Y-65270000D01*
X137070000Y-64770000D02*
X137070000Y-65270000D01*
%TO.C,R19*%
X114356359Y-79380000D02*
X114663641Y-79380000D01*
X114356359Y-78620000D02*
X114663641Y-78620000D01*
%TO.C,R26*%
X119846359Y-73620000D02*
X120153641Y-73620000D01*
X119846359Y-74380000D02*
X120153641Y-74380000D01*
%TO.C,C24*%
X133412164Y-102110000D02*
X133627836Y-102110000D01*
X133412164Y-101390000D02*
X133627836Y-101390000D01*
D12*
%TO.C,J1*%
X144347200Y-60903000D02*
X144753600Y-61690400D01*
X145998200Y-60420400D02*
X145998200Y-58413800D01*
X124001800Y-58413800D02*
X124001800Y-60420400D01*
X145388600Y-60420400D02*
X144753600Y-61690400D01*
X124001800Y-60420400D02*
X124763800Y-60420400D01*
X145236200Y-60420400D02*
X145388600Y-60420400D01*
X145388600Y-60420400D02*
X145998200Y-60420400D01*
X145998200Y-56940600D02*
X145998200Y-56661200D01*
X145998200Y-56661200D02*
X124001800Y-56661200D01*
X124001800Y-56661200D02*
X124001800Y-56940600D01*
D11*
%TO.C,R22*%
X134620000Y-115086359D02*
X134620000Y-115393641D01*
X135380000Y-115086359D02*
X135380000Y-115393641D01*
%TO.C,C29*%
X133642164Y-120640000D02*
X133857836Y-120640000D01*
X133642164Y-121360000D02*
X133857836Y-121360000D01*
%TO.C,RN1*%
X143570000Y-64770000D02*
X143570000Y-65270000D01*
X145930000Y-64770000D02*
X145930000Y-65270000D01*
%TO.C,C22*%
X136857836Y-123390000D02*
X136642164Y-123390000D01*
X136857836Y-124110000D02*
X136642164Y-124110000D01*
%TO.C,R14*%
X146870000Y-64856359D02*
X146870000Y-65163641D01*
X147630000Y-64856359D02*
X147630000Y-65163641D01*
%TO.C,R23*%
X135380000Y-109346359D02*
X135380000Y-109653641D01*
X134620000Y-109346359D02*
X134620000Y-109653641D01*
D10*
%TO.C,U4*%
X112750000Y-121250000D02*
X112750000Y-119750000D01*
X114250000Y-121250000D02*
X112750000Y-121250000D01*
D13*
X113100000Y-106600000D02*
X131400000Y-106600000D01*
X131400000Y-120900000D02*
X113100000Y-120900000D01*
X113100000Y-120900000D02*
X113100000Y-106600000D01*
X131400000Y-106600000D02*
X131400000Y-120900000D01*
D11*
%TO.C,R25*%
X113512742Y-61727500D02*
X113987258Y-61727500D01*
X113512742Y-62772500D02*
X113987258Y-62772500D01*
%TO.C,I2C*%
X112450000Y-67300000D02*
X112450000Y-68700000D01*
X111050000Y-68700000D02*
X111050000Y-67300000D01*
X112450000Y-68700000D02*
X111050000Y-68700000D01*
X111050000Y-67300000D02*
X112450000Y-67300000D01*
%TO.C,C28*%
X111760000Y-87640580D02*
X111760000Y-87359420D01*
X110740000Y-87640580D02*
X110740000Y-87359420D01*
%TO.C,C30*%
X111127836Y-120640000D02*
X110912164Y-120640000D01*
X111127836Y-121360000D02*
X110912164Y-121360000D01*
%TO.C,R8*%
X129880000Y-64856359D02*
X129880000Y-65163641D01*
X129120000Y-64856359D02*
X129120000Y-65163641D01*
%TO.C,C31*%
X148372164Y-103390000D02*
X148587836Y-103390000D01*
X148372164Y-104110000D02*
X148587836Y-104110000D01*
%TO.C,U1*%
X129380000Y-73130000D02*
X131630000Y-73130000D01*
X129380000Y-73130000D02*
X131630000Y-73130000D01*
X129380000Y-75380000D02*
X129380000Y-73130000D01*
X129380000Y-73130000D02*
X131630000Y-73130000D01*
X138620000Y-75380000D02*
X138620000Y-73130000D01*
X129380000Y-75380000D02*
X129380000Y-73130000D01*
X138620000Y-73130000D02*
X136370000Y-73130000D01*
X129380000Y-80120000D02*
X129380000Y-81250000D01*
X129380000Y-75380000D02*
X129380000Y-73130000D01*
X138620000Y-82370000D02*
X136370000Y-82370000D01*
X130500000Y-82370000D02*
X131630000Y-82370000D01*
X138620000Y-80120000D02*
X138620000Y-82370000D01*
D14*
X129600000Y-82250000D02*
G75*
G03*
X129600000Y-82250000I-100000J0D01*
G01*
D11*
%TO.C,R16*%
X114356359Y-80880000D02*
X114663641Y-80880000D01*
X114356359Y-80120000D02*
X114663641Y-80120000D01*
%TO.C,C23*%
X111357836Y-95360000D02*
X111142164Y-95360000D01*
X111357836Y-94640000D02*
X111142164Y-94640000D01*
%TO.C,D1*%
X149765000Y-59765000D02*
X149765000Y-61235000D01*
X152050000Y-59765000D02*
X149765000Y-59765000D01*
X149765000Y-61235000D02*
X152050000Y-61235000D01*
%TO.C,R13*%
X113512742Y-65022500D02*
X113987258Y-65022500D01*
X113512742Y-63977500D02*
X113987258Y-63977500D01*
%TO.C,R27*%
X119846359Y-75120000D02*
X120153641Y-75120000D01*
X119846359Y-75880000D02*
X120153641Y-75880000D01*
%TO.C,R7*%
X132120000Y-64866359D02*
X132120000Y-65173641D01*
X132880000Y-64866359D02*
X132880000Y-65173641D01*
D13*
%TO.C,U3*%
X131400000Y-102150000D02*
X113100000Y-102150000D01*
X113100000Y-87850000D02*
X131400000Y-87850000D01*
D10*
X112750000Y-102500000D02*
X112750000Y-101000000D01*
X114250000Y-102500000D02*
X112750000Y-102500000D01*
D13*
X131400000Y-87850000D02*
X131400000Y-102150000D01*
X113100000Y-102150000D02*
X113100000Y-87850000D01*
D11*
%TO.C,C39*%
X156359420Y-104510000D02*
X156640580Y-104510000D01*
X156359420Y-103490000D02*
X156640580Y-103490000D01*
%TO.C,C12*%
X117890580Y-61510000D02*
X117609420Y-61510000D01*
X117890580Y-60490000D02*
X117609420Y-60490000D01*
%TO.C,R21*%
X133380000Y-115086359D02*
X133380000Y-115393641D01*
X132620000Y-115086359D02*
X132620000Y-115393641D01*
%TO.C,C18*%
X156412164Y-122640000D02*
X156627836Y-122640000D01*
X156412164Y-123360000D02*
X156627836Y-123360000D01*
%TO.C,R17*%
X114336359Y-83120000D02*
X114643641Y-83120000D01*
X114336359Y-83880000D02*
X114643641Y-83880000D01*
%TO.C,C38*%
X119109420Y-122490000D02*
X119390580Y-122490000D01*
X119109420Y-123510000D02*
X119390580Y-123510000D01*
D13*
%TO.C,U6*%
X154900000Y-102150000D02*
X136600000Y-102150000D01*
D10*
X136250000Y-102500000D02*
X136250000Y-101000000D01*
D13*
X154900000Y-87850000D02*
X154900000Y-102150000D01*
X136600000Y-102150000D02*
X136600000Y-87850000D01*
X136600000Y-87850000D02*
X154900000Y-87850000D01*
D10*
X137750000Y-102500000D02*
X136250000Y-102500000D01*
D11*
%TO.C,SDA*%
X112450000Y-71800000D02*
X112450000Y-73200000D01*
X111050000Y-71800000D02*
X112450000Y-71800000D01*
X111050000Y-73200000D02*
X111050000Y-71800000D01*
X112450000Y-73200000D02*
X111050000Y-73200000D01*
%TO.C,C21*%
X136877836Y-122140000D02*
X136662164Y-122140000D01*
X136877836Y-122860000D02*
X136662164Y-122860000D01*
%TO.C,R9*%
X126880000Y-64876359D02*
X126880000Y-65183641D01*
X126120000Y-64876359D02*
X126120000Y-65183641D01*
%TO.C,R20*%
X114356359Y-85380000D02*
X114663641Y-85380000D01*
X114356359Y-84620000D02*
X114663641Y-84620000D01*
%TO.C,C37*%
X125109420Y-122490000D02*
X125390580Y-122490000D01*
X125109420Y-123510000D02*
X125390580Y-123510000D01*
%TO.C,R5*%
X122370000Y-68596359D02*
X122370000Y-68903641D01*
X123130000Y-68596359D02*
X123130000Y-68903641D01*
D10*
%TO.C,U5*%
X137750000Y-121250000D02*
X136250000Y-121250000D01*
D13*
X154900000Y-120900000D02*
X136600000Y-120900000D01*
X154900000Y-106600000D02*
X154900000Y-120900000D01*
X136600000Y-120900000D02*
X136600000Y-106600000D01*
X136600000Y-106600000D02*
X154900000Y-106600000D01*
D10*
X136250000Y-121250000D02*
X136250000Y-119750000D01*
D11*
%TO.C,C19*%
X111337836Y-89390000D02*
X111122164Y-89390000D01*
X111337836Y-90110000D02*
X111122164Y-90110000D01*
%TO.C,C34*%
X111357836Y-108860000D02*
X111142164Y-108860000D01*
X111357836Y-108140000D02*
X111142164Y-108140000D01*
%TO.C,R3*%
X126130000Y-68596359D02*
X126130000Y-68903641D01*
X125370000Y-68596359D02*
X125370000Y-68903641D01*
%TO.C,R6*%
X121630000Y-68596359D02*
X121630000Y-68903641D01*
X120870000Y-68596359D02*
X120870000Y-68903641D01*
%TO.C,R24*%
X132620000Y-109346359D02*
X132620000Y-109653641D01*
X133380000Y-109346359D02*
X133380000Y-109653641D01*
%TO.C,R15*%
X154346359Y-60880000D02*
X154653641Y-60880000D01*
X154346359Y-60120000D02*
X154653641Y-60120000D01*
%TO.C,C13*%
X118240000Y-68834420D02*
X118240000Y-69115580D01*
X119260000Y-68834420D02*
X119260000Y-69115580D01*
%TO.C,SCL*%
X111050000Y-70950000D02*
X111050000Y-69550000D01*
X112450000Y-70950000D02*
X111050000Y-70950000D01*
X112450000Y-69550000D02*
X112450000Y-70950000D01*
X111050000Y-69550000D02*
X112450000Y-69550000D01*
%TO.C,R11*%
X123880000Y-64866359D02*
X123880000Y-65173641D01*
X123120000Y-64866359D02*
X123120000Y-65173641D01*
D10*
%TO.C,U2*%
X116975000Y-66650000D02*
X119025000Y-66650000D01*
X116270000Y-63350000D02*
X119025000Y-63350000D01*
D11*
%TO.C,RN2*%
X140320000Y-64770000D02*
X140320000Y-65270000D01*
X142680000Y-64770000D02*
X142680000Y-65270000D01*
%TO.C,C32*%
X134640000Y-101142164D02*
X134640000Y-101357836D01*
X135360000Y-101142164D02*
X135360000Y-101357836D01*
%TO.C,R10*%
X125380000Y-64866359D02*
X125380000Y-65173641D01*
X124620000Y-64866359D02*
X124620000Y-65173641D01*
%TO.C,R18*%
X114336359Y-82380000D02*
X114643641Y-82380000D01*
X114336359Y-81620000D02*
X114643641Y-81620000D01*
%TO.C,R1*%
X130620000Y-64866359D02*
X130620000Y-65173641D01*
X131380000Y-64866359D02*
X131380000Y-65173641D01*
%TO.C,C26*%
X142609420Y-122490000D02*
X142890580Y-122490000D01*
X142609420Y-123510000D02*
X142890580Y-123510000D01*
%TD*%
M02*
