M48
; DRILL file {KiCad (6.0.7)} date Mon 03 Oct 2022 06:22:03 PM EDT
; FORMAT={-:-/ absolute / inch / decimal}
; #@! TF.CreationDate,2022-10-03T18:22:03-04:00
; #@! TF.GenerationSoftware,Kicad,Pcbnew,(6.0.7)
; #@! TF.FileFunction,Plated,1,4,PTH
FMAT,2
INCH
; #@! TA.AperFunction,Plated,PTH,ViaDrill
T1C0.0079
%
G90
G05
T1
X4.3602Y-4.872
X4.3701Y-2.3327
X4.3701Y-2.4016
X4.3701Y-3.6319
X4.3701Y-3.8189
X4.3701Y-4.0354
X4.3701Y-4.3799
X4.3701Y-4.4488
X4.3701Y-4.5177
X4.3898Y-2.6083
X4.3898Y-3.1102
X4.3898Y-3.2283
X4.3898Y-3.3465
X4.4094Y-2.5
X4.4193Y-2.3819
X4.4193Y-2.4114
X4.4193Y-2.4606
X4.4193Y-2.5295
X4.4193Y-4.7638
X4.4276Y-3.5335
X4.4291Y-3.9764
X4.439Y-2.3524
X4.439Y-3.4449
X4.439Y-3.7402
X4.439Y-4.1043
X4.439Y-4.2126
X4.439Y-4.2717
X4.4459Y-2.4144
X4.4488Y-2.3819
X4.4488Y-3.1693
X4.4587Y-2.3327
X4.4685Y-2.3622
X4.4783Y-4.6555
X4.4882Y-2.3327
X4.4882Y-2.6772
X4.498Y-2.3622
X4.498Y-2.7165
X4.498Y-2.8051
X4.498Y-2.8937
X4.498Y-3.0315
X4.5108Y-2.5758
X4.5108Y-2.6053
X4.5177Y-2.3327
X4.5177Y-2.6378
X4.5177Y-4.4193
X4.5177Y-4.5079
X4.5177Y-4.872
X4.5276Y-2.3622
X4.5374Y-2.5689
X4.5374Y-2.5984
X4.5374Y-2.6575
X4.5423Y-2.623
X4.5472Y-2.3327
X4.5472Y-2.4016
X4.5571Y-2.3622
X4.5571Y-2.5295
X4.5571Y-2.6772
X4.5571Y-4.7343
X4.562Y-2.6427
X4.5768Y-3.061
X4.5768Y-3.6713
X4.5768Y-3.7992
X4.5768Y-4.1831
X4.5768Y-4.4193
X4.5849Y-2.6592
X4.5866Y-2.687
X4.5965Y-2.4606
X4.5965Y-2.8543
X4.5965Y-3.0413
X4.5965Y-3.563
X4.5965Y-3.6024
X4.5965Y-3.7205
X4.5965Y-3.878
X4.5965Y-3.9173
X4.5965Y-4.2028
X4.5965Y-4.3406
X4.5965Y-4.3799
X4.5965Y-4.6949
X4.6063Y-2.3327
X4.6063Y-4.8425
X4.6144Y-2.6592
X4.6161Y-2.687
X4.6161Y-2.7657
X4.6161Y-3.0217
X4.6161Y-3.3268
X4.6358Y-3.3465
X4.6358Y-4.3406
X4.6358Y-4.4193
X4.644Y-2.6592
X4.6457Y-2.687
X4.6457Y-2.9429
X4.6457Y-3.002
X4.6555Y-2.8051
X4.6555Y-2.8839
X4.6555Y-3.4252
X4.6654Y-2.3327
X4.6654Y-3.2776
X4.6752Y-3.3858
X4.6752Y-4.3012
X4.6752Y-4.4193
X4.6752Y-4.5374
X4.6752Y-4.5768
X4.6771Y-4.6968
X4.6793Y-4.7412
X4.685Y-3.0807
X4.6949Y-3.4055
X4.7047Y-2.4803
X4.7146Y-2.4114
X4.7146Y-3.0807
X4.7146Y-3.3661
X4.7146Y-4.3406
X4.7146Y-4.6555
X4.7244Y-2.8051
X4.7343Y-2.7067
X4.7343Y-3.3071
X4.7343Y-4.0256
X4.7441Y-2.4016
X4.7441Y-2.4311
X4.7441Y-2.4606
X4.7441Y-2.4902
X4.7441Y-2.5197
X4.7441Y-2.5492
X4.7441Y-2.6083
X4.7441Y-3.1988
X4.7441Y-4.7343
X4.7539Y-3.563
X4.7539Y-3.6024
X4.7539Y-3.6417
X4.7539Y-3.6811
X4.7539Y-4.0453
X4.7539Y-4.3799
X4.7539Y-4.4193
X4.7539Y-4.5768
X4.7545Y-4.4888
X4.7736Y-2.8445
X4.7736Y-2.9134
X4.7736Y-3.3071
X4.7736Y-4.124
X4.7746Y-2.3907
X4.7933Y-3.563
X4.7933Y-3.6024
X4.7933Y-3.6417
X4.7933Y-3.6811
X4.7933Y-3.7992
X4.7933Y-4.1043
X4.7933Y-4.3799
X4.7933Y-4.4193
X4.7933Y-4.5374
X4.7933Y-4.5768
X4.7933Y-4.6555
X4.7943Y-2.4104
X4.8031Y-2.9134
X4.8031Y-2.9724
X4.8031Y-4.872
X4.813Y-3.1299
X4.813Y-4.065
X4.8223Y-3.1786
X4.8228Y-2.4114
X4.8327Y-2.7953
X4.8327Y-3.7992
X4.8327Y-3.8386
X4.8327Y-4.0846
X4.8327Y-4.5768
X4.8425Y-4.7343
X4.8425Y-4.8425
X4.8518Y-3.3852
X4.8524Y-2.4114
X4.8524Y-3.1988
X4.8524Y-4.1437
X4.8622Y-2.8248
X4.872Y-3.563
X4.872Y-3.6417
X4.872Y-3.7598
X4.872Y-3.7992
X4.872Y-4.1634
X4.872Y-4.5374
X4.872Y-4.5768
X4.872Y-4.6555
X4.8732Y-3.6132
X4.8819Y-2.4114
X4.8917Y-3.4055
X4.9114Y-2.4114
X4.9114Y-3.3858
X4.9114Y-4.3799
X4.9114Y-4.4193
X4.9114Y-4.5768
X4.9213Y-2.7756
X4.9311Y-3.248
X4.9409Y-2.2539
X4.9409Y-2.4114
X4.9409Y-4.7047
X4.9409Y-4.7343
X4.9502Y-3.1982
X4.9508Y-2.7559
X4.9508Y-3.1693
X4.9508Y-4.3012
X4.9508Y-4.3406
X4.9508Y-4.5374
X4.9508Y-4.5768
X4.9656Y-2.8051
X4.9705Y-3.248
X4.9902Y-2.3031
X4.9902Y-3.2087
X4.9902Y-4.3406
X4.9902Y-4.4587
X4.9902Y-4.498
X5.0098Y-3.248
X5.0295Y-3.0462
X5.0295Y-3.1496
X5.0295Y-3.1939
X5.0295Y-3.6024
X5.0295Y-3.7343
X5.0295Y-4.1831
X5.0295Y-4.3799
X5.0295Y-4.498
X5.0295Y-4.6161
X5.0362Y-2.9276
X5.0394Y-2.2539
X5.0394Y-2.6083
X5.0591Y-4.5669
X5.0689Y-2.8445
X5.0689Y-3.749
X5.0689Y-3.7795
X5.0689Y-4.3012
X5.0689Y-4.439
X5.0689Y-4.5177
X5.0886Y-2.3228
X5.0886Y-4.5669
X5.0898Y-2.8236
X5.0984Y-2.6083
X5.0984Y-2.7313
X5.0996Y-2.7608
X5.1083Y-3.81
X5.128Y-2.7608
X5.1515Y-3.9134
X5.1575Y-2.2539
X5.1575Y-2.6083
X5.1575Y-2.7313
X5.1575Y-2.7559
X5.1575Y-2.9429
X5.1575Y-3.0315
X5.1575Y-3.061
X5.1575Y-3.1496
X5.1575Y-3.1791
X5.1575Y-3.5039
X5.1575Y-3.878
X5.1575Y-4.2618
X5.1575Y-4.3701
X5.1575Y-4.872
X5.1673Y-3.8336
X5.187Y-2.8543
X5.187Y-2.9429
X5.187Y-3.0315
X5.187Y-3.061
X5.187Y-3.1791
X5.187Y-3.5335
X5.187Y-4.3504
X5.1969Y-3.8484
X5.1969Y-3.8878
X5.2067Y-4.7638
X5.216Y-3.4443
X5.2165Y-2.6083
X5.2165Y-2.7412
X5.2165Y-2.9429
X5.2165Y-3.1201
X5.2165Y-3.1791
X5.2165Y-3.7598
X5.2205Y-3.4882
X5.2362Y-2.874
X5.2362Y-3.8189
X5.2362Y-4.124
X5.2362Y-4.252
X5.2362Y-4.3701
X5.2362Y-4.4783
X5.2362Y-4.5965
X5.2461Y-2.9429
X5.2461Y-3.0315
X5.2461Y-3.1201
X5.2461Y-3.1496
X5.2461Y-3.1791
X5.2461Y-3.435
X5.2461Y-3.6614
X5.2535Y-3.8657
X5.2657Y-2.2539
X5.2657Y-2.8445
X5.2657Y-3.7205
X5.2657Y-3.8091
X5.2657Y-4.0846
X5.275Y-3.4148
X5.2756Y-3.061
X5.2756Y-3.0906
X5.2756Y-3.1496
X5.2756Y-4.6752
X5.2854Y-2.6083
X5.2854Y-2.7264
X5.2854Y-2.874
X5.2854Y-3.6201
X5.2854Y-3.8287
X5.2854Y-4.1043
X5.2904Y-3.3951
X5.3051Y-2.6181
X5.3051Y-3.061
X5.3051Y-3.0906
X5.3051Y-3.1496
X5.3051Y-3.1791
X5.3051Y-3.6703
X5.315Y-3.9272
X5.315Y-4.065
X5.315Y-4.252
X5.315Y-4.3701
X5.315Y-4.4783
X5.315Y-4.5965
X5.3168Y-2.7737
X5.3248Y-2.6083
X5.3248Y-2.6969
X5.3248Y-3.6417
X5.3248Y-3.7106
X5.3248Y-3.75
X5.3346Y-2.9134
X5.3346Y-2.9429
X5.3346Y-3.002
X5.3346Y-3.0315
X5.3346Y-3.1496
X5.3346Y-3.1791
X5.3445Y-2.6181
X5.3445Y-2.7411
X5.3445Y-2.7982
X5.3642Y-2.815
X5.3642Y-2.9429
X5.3642Y-2.9724
X5.3642Y-3.002
X5.3642Y-3.0315
X5.3642Y-3.0906
X5.3642Y-3.1201
X5.3642Y-3.1496
X5.3642Y-3.1791
X5.3642Y-3.6713
X5.3642Y-3.7894
X5.374Y-2.2539
X5.3937Y-2.815
X5.3937Y-2.9429
X5.3937Y-2.9724
X5.3937Y-3.002
X5.3937Y-3.0319
X5.3937Y-3.0906
X5.3937Y-3.1201
X5.3937Y-3.1496
X5.3937Y-3.1791
X5.3937Y-3.2087
X5.3937Y-3.4252
X5.4134Y-2.6083
X5.4134Y-2.687
X5.4134Y-3.4646
X5.4331Y-2.6231
X5.4331Y-2.7559
X5.4331Y-3.3563
X5.4331Y-3.4744
X5.4429Y-4.6949
X5.4429Y-4.8228
X5.4429Y-4.872
X5.4528Y-2.6083
X5.4528Y-2.6575
X5.4528Y-3.4646
X5.4528Y-4.439
X5.4528Y-4.498
X5.4724Y-3.4744
X5.4823Y-2.2539
X5.4823Y-3.0462
X5.4823Y-4.6949
X5.502Y-3.002
X5.502Y-3.061
X5.5118Y-3.7598
X5.5191Y-3.6614
X5.5217Y-3.6024
X5.5217Y-3.7205
X5.5217Y-4.2254
X5.5217Y-4.2618
X5.5217Y-4.3012
X5.5217Y-4.3406
X5.5217Y-4.3799
X5.5217Y-4.4587
X5.5217Y-4.6161
X5.5217Y-4.6949
X5.5408Y-3.2967
X5.5413Y-2.6083
X5.5413Y-2.6919
X5.5413Y-4.8425
X5.5591Y-3.683
X5.5604Y-3.277
X5.561Y-3.75
X5.561Y-3.7992
X5.561Y-4.3406
X5.561Y-4.3799
X5.5616Y-3.8774
X5.5626Y-3.5214
X5.5807Y-2.2539
X5.5807Y-2.6181
X5.5807Y-2.7559
X5.59Y-3.2474
X5.6004Y-2.6083
X5.6004Y-2.7362
X5.6004Y-4.3012
X5.6004Y-4.3406
X5.6004Y-4.3799
X5.6004Y-4.4193
X5.6004Y-4.6949
X5.6097Y-3.2278
X5.6157Y-3.7271
X5.619Y-3.7512
X5.6201Y-3.2087
X5.6392Y-3.1348
X5.6398Y-3.1644
X5.6398Y-3.1939
X5.6398Y-3.7628
X5.6398Y-4.1831
X5.6398Y-4.2421
X5.6398Y-4.685
X5.6594Y-3.5138
X5.6594Y-4.0256
X5.6693Y-2.6083
X5.6693Y-2.7608
X5.6791Y-2.2539
X5.6791Y-3.563
X5.6791Y-3.6024
X5.6791Y-3.6417
X5.6791Y-3.6811
X5.6791Y-4.0453
X5.6791Y-4.5768
X5.6791Y-4.6161
X5.689Y-3.5236
X5.6988Y-4.065
X5.7087Y-2.6083
X5.7087Y-2.7953
X5.7136Y-4.3799
X5.7136Y-4.4193
X5.7185Y-3.0906
X5.7185Y-3.6417
X5.7185Y-3.8386
X5.7185Y-4.0846
X5.7185Y-4.5374
X5.7185Y-4.5768
X5.7185Y-4.6161
X5.7263Y-2.9277
X5.7327Y-2.8402
X5.7382Y-4.1043
X5.7382Y-4.872
X5.7579Y-3.1201
X5.7579Y-3.6811
X5.7579Y-3.7628
X5.7579Y-3.7992
X5.7579Y-3.8386
X5.7579Y-4.124
X5.7579Y-4.3799
X5.7579Y-4.4193
X5.7579Y-4.5768
X5.7579Y-4.6161
X5.7668Y-2.8251
X5.7776Y-2.3327
X5.7776Y-3.0413
X5.7776Y-3.4547
X5.7776Y-3.5236
X5.7776Y-4.1437
X5.7874Y-2.9479
X5.7936Y-3.6774
X5.7957Y-3.8014
X5.7972Y-2.6181
X5.7972Y-3.1791
X5.7972Y-3.7628
X5.7972Y-4.1634
X5.7972Y-4.5374
X5.7972Y-4.5768
X5.7972Y-4.6161
X5.8031Y-3.8386
X5.8031Y-4.4537
X5.8169Y-2.9577
X5.8169Y-3.5039
X5.8169Y-3.5433
X5.8169Y-3.9173
X5.8268Y-3.061
X5.8268Y-4.0354
X5.8268Y-4.124
X5.8268Y-4.2126
X5.8366Y-3.9675
X5.8366Y-4.3799
X5.8366Y-4.5374
X5.8366Y-4.6161
X5.8416Y-3.9285
X5.8465Y-2.4606
X5.8465Y-2.5591
X5.8465Y-2.6575
X5.8465Y-2.7362
X5.847Y-3.0758
X5.8661Y-3.1055
X5.8661Y-2.9724
X5.8661Y-4.0354
X5.8661Y-4.124
X5.871Y-3.4547
X5.8711Y-3.9148
X5.8711Y-3.9398
X5.876Y-4.3012
X5.876Y-4.3406
X5.876Y-4.5374
X5.8858Y-3.1496
X5.9055Y-3.002
X5.9055Y-4.1831
X5.9055Y-4.2126
X5.9154Y-4.3406
X5.9154Y-4.4587
X5.9154Y-4.5374
X5.9154Y-4.6161
X5.9154Y-4.6555
X5.9271Y-3.002
X5.935Y-4.8425
X5.9547Y-2.8051
X5.9547Y-2.9035
X5.9547Y-3.7992
X5.9547Y-4.3799
X5.9547Y-4.5374
X5.9547Y-4.6161
X5.9646Y-4.439
X5.9843Y-2.4606
X5.9843Y-2.5591
X5.9843Y-2.6575
X5.9843Y-2.7362
X6.0132Y-3.0321
X6.0236Y-4.872
X6.0335Y-4.439
X6.0503Y-3.0172
X6.0531Y-2.8051
X6.0531Y-2.9035
X6.063Y-3.8189
X6.064Y-4.5276
X6.0827Y-3.6024
X6.0827Y-4.0945
X6.0827Y-4.2618
X6.0925Y-3.435
X6.1024Y-3.7402
X6.1024Y-4.2815
X6.1024Y-4.3406
X6.1024Y-4.8425
X6.1122Y-2.4606
X6.1122Y-2.5591
X6.1122Y-2.6575
X6.1122Y-2.7362
X6.1122Y-4.2126
X6.1122Y-4.311
X6.122Y-2.9823
X6.122Y-3.0906
X6.122Y-3.1988
X6.122Y-3.2972
X6.1417Y-2.3819
X6.1614Y-2.8051
X6.1614Y-2.9035
X6.1811Y-4.2815
X6.1811Y-4.3799
X6.1811Y-4.4783
X6.1811Y-4.7343
X6.1909Y-2.9823
X6.1909Y-3.0906
X6.1909Y-3.1988
X6.1909Y-3.2972
X6.1909Y-3.4646
X6.1909Y-3.6024
X6.1909Y-3.8386
X6.1909Y-3.9862
T0
M30
