%TF.GenerationSoftware,KiCad,Pcbnew,(6.0.7)*%
%TF.CreationDate,2022-10-03T18:22:00-04:00*%
%TF.ProjectId,IDE-SSD-ZIF,4944452d-5353-4442-9d5a-49462e6b6963,rev?*%
%TF.SameCoordinates,Original*%
%TF.FileFunction,Profile,NP*%
%FSLAX46Y46*%
G04 Gerber Fmt 4.6, Leading zero omitted, Abs format (unit mm)*
G04 Created by KiCad (PCBNEW (6.0.7)) date 2022-10-03 18:22:00*
%MOMM*%
%LPD*%
G01*
G04 APERTURE LIST*
%TA.AperFunction,Profile*%
%ADD10C,0.100000*%
%TD*%
G04 APERTURE END LIST*
D10*
X111500000Y-62000000D02*
X109500000Y-62000000D01*
X109500000Y-124750000D02*
X109500000Y-119000000D01*
X158500000Y-115500000D02*
X156500000Y-115500000D01*
X109500000Y-115500000D02*
X109500000Y-65500000D01*
X111500000Y-65500000D02*
X111500000Y-62000000D01*
X156500000Y-62000000D02*
X156500000Y-65500000D01*
X123500000Y-56250000D02*
X146500000Y-56250000D01*
X158500000Y-65500000D02*
X158500000Y-115500000D01*
X146500000Y-56250000D02*
X146500000Y-58000000D01*
X158500000Y-124750000D02*
X109500000Y-124750000D01*
X158500000Y-58000000D02*
X158500000Y-62000000D01*
X146500000Y-58000000D02*
X158500000Y-58000000D01*
X158500000Y-119000000D02*
X158500000Y-124750000D01*
X111500000Y-119000000D02*
X111500000Y-115500000D01*
X109500000Y-119000000D02*
X111500000Y-119000000D01*
X156500000Y-115500000D02*
X156500000Y-119000000D01*
X123500000Y-58000000D02*
X123500000Y-56250000D01*
X109500000Y-65500000D02*
X111500000Y-65500000D01*
X109500000Y-62000000D02*
X109500000Y-58000000D01*
X158500000Y-62000000D02*
X156500000Y-62000000D01*
X156500000Y-65500000D02*
X158500000Y-65500000D01*
X111500000Y-115500000D02*
X109500000Y-115500000D01*
X109500000Y-58000000D02*
X123500000Y-58000000D01*
X156500000Y-119000000D02*
X158500000Y-119000000D01*
M02*
